<svg width="81" height="81" viewBox="0 0 81 81" fill="none" xmlns="http://www.w3.org/2000/svg">
<rect width="81" height="81" rx="40.5" fill="#FFECCC"/>
<path d="M58.5 38.5H23L23.5 41.5L26 45L29.5 49L31.5 52L32 54L33 58.5H49L49.5 56L50.5 52L53.5 48L56 45L58.5 41.5V38.5Z" fill="#C57171"/>
<path fill-rule="evenodd" clip-rule="evenodd" d="M22.3843 37.3738H41.2668L59.526 37.3738V38.2177C59.526 41.9199 57.2553 45.2492 53.748 48.6909C50.5108 51.8676 49.988 56.1477 50.0276 58.4414L50.0424 59.2999H40.6542L31.8679 59.2999L31.8827 58.4414C31.9223 56.1477 31.3995 51.8676 28.1623 48.6909C24.655 45.2492 22.3843 41.9199 22.3843 38.2177V37.3738ZM24.1209 39.0616C24.432 41.7523 26.2245 44.4245 29.3445 47.4862C32.6708 50.7504 33.4628 54.9712 33.5613 57.612H41.1999L48.349 57.6121C48.4475 54.9712 49.2395 50.7504 52.5659 47.4862C55.6859 44.4245 57.4783 41.7524 57.7894 39.0616H40.6997L24.1209 39.0616Z" fill="white"/>
<path d="M39.6175 25.7333V17.6628V16.7937L37.9413 15.0554L34.9614 14.6208L32.9128 16.3591L32.1057 18.3457L28.0705 18.7182L26.0839 21.0772L25.5252 23.9329L23.1041 24.6779V26.2299L23.6007 28.1544L21.8004 29.0235L20.745 30.7618V33.3692L22.4832 34.8591L24.5319 35.4178H37.2584L38.7483 33.3692L39.6175 30.3893L37.9413 27.5957L38.7483 26.9749L39.6175 25.7333Z" fill="#FDC210"/>
<path d="M42.349 25.7333V17.6628V16.7937L44.0251 15.0554L47.005 14.6208L49.0537 16.3591L49.8607 18.3457L53.8959 18.7182L55.8825 21.0772L56.4412 23.9329L58.8624 24.6779V26.2299L58.3657 28.1544L60.1661 29.0235L61.2214 30.7618V33.3692L59.4832 34.8591L57.4345 35.4178H44.708L43.2181 33.3692L42.349 30.3893L44.0251 27.5957L43.2181 26.9749L42.349 25.7333Z" fill="#54BEB2"/>
<path fill-rule="evenodd" clip-rule="evenodd" d="M48.3565 16.4148C48.7145 16.8545 48.9696 17.3696 49.1329 17.8293C48.2031 18.1888 47.5186 18.8308 47.042 19.5464C46.3894 20.5261 46.1102 21.6611 46.0745 22.4817C46.0581 22.8585 46.3503 23.1773 46.7271 23.1936C47.1039 23.21 47.4226 22.9178 47.439 22.5411C47.4654 21.9339 47.6828 21.048 48.1787 20.3035C48.4944 19.8295 48.9154 19.4209 49.4741 19.1672L50.1351 19.0182C51.3035 18.7547 52.2043 18.8186 52.8988 19.0542C53.5914 19.2891 54.1246 19.7103 54.5355 20.2371C55.375 21.3134 55.6868 22.8149 55.6963 23.8833L55.7019 24.5142L56.3314 24.5584C57.4785 24.6389 58.0135 25.232 58.1888 25.8444C58.3565 26.4305 58.2154 27.0856 57.8392 27.5338C57.1259 27.497 56.5586 27.5881 56.0818 27.7764C55.4701 28.018 55.0643 28.4059 54.7712 28.6861L54.7708 28.6864C54.7359 28.7198 54.7025 28.7517 54.6706 28.7816C54.3954 29.0396 54.3815 29.4717 54.6394 29.7469C54.8974 30.022 55.3295 30.036 55.6047 29.778C55.6196 29.7641 55.6342 29.7503 55.6486 29.7367C55.6698 29.7168 55.6905 29.6972 55.7108 29.6781C56.0146 29.3909 56.232 29.1855 56.5835 29.0466C56.9335 28.9084 57.48 28.8195 58.4292 28.9694C59.1412 29.1638 60.2365 29.8143 60.5507 31.4553C60.7203 32.3407 60.3797 33.0618 59.8061 33.6498C59.2552 34.2145 58.5289 34.6074 58 34.8033H45.6764C44.6253 34.2658 43.9835 33.6701 43.6078 33.0878C43.2192 32.4857 43.0878 31.8564 43.1224 31.231C43.1886 30.0329 43.8685 28.8439 44.5562 28.0527C45.1832 27.8346 45.6545 27.9843 46.029 28.2585C46.4697 28.5812 46.7839 29.0924 46.9268 29.4622C47.0627 29.814 47.4581 29.989 47.8099 29.8531C48.1617 29.7172 48.3367 29.3218 48.2008 28.97C47.9919 28.4293 47.5426 27.6741 46.8358 27.1566C46.1568 26.6594 45.2518 26.3969 44.1971 26.7328C43.6641 26.7293 43.3884 26.5318 43.2296 26.335C43.0498 26.1123 42.9783 25.8344 42.9698 25.6633V17.6304C43.1659 16.9269 44.0277 15.4937 46.1139 15.3709C47.1084 15.3125 47.8277 15.7654 48.3565 16.4148ZM49.4156 15.5525C48.6841 14.654 47.5721 13.917 46.0337 14.0075C43.1252 14.1786 41.879 16.2842 41.6218 17.3903L41.604 17.4666V25.6897L41.6044 25.7019C41.6191 26.1112 41.7655 26.6957 42.1668 27.1928C42.379 27.4557 42.6533 27.6822 42.993 27.8429C42.3724 28.7379 41.8278 29.9045 41.7587 31.1557C41.7099 32.0378 41.8991 32.959 42.4602 33.8284C43.0179 34.6925 43.9151 35.463 45.2147 36.0995L45.3568 36.1691H58.23L58.3367 36.133C59.0233 35.9002 60.0123 35.3943 60.7837 34.6035C61.5687 33.7988 62.1696 32.6472 61.8921 31.1984C61.5201 29.2556 60.3204 28.2596 59.2744 27.8223C59.6404 27.0998 59.7239 26.2445 59.5019 25.4686C59.202 24.4209 58.3637 23.5589 57.0332 23.2794C56.93 22.0873 56.5372 20.5828 55.6124 19.3971C55.0605 18.6895 54.3156 18.0926 53.3376 17.7608C52.5202 17.4835 51.5724 17.4023 50.4846 17.5639C50.2814 16.9301 49.9368 16.1926 49.4156 15.5525ZM46.2746 24.6061C46.1972 24.9753 46.4337 25.3372 46.8029 25.4146C48.6467 25.8012 49.8913 26.485 50.5714 27.5629C51.2535 28.6439 51.4739 30.2895 50.8722 32.8466C50.7858 33.2137 51.0134 33.5813 51.3806 33.6677C51.7477 33.7541 52.1153 33.5265 52.2017 33.1594C52.8416 30.4397 52.6895 28.3604 51.7265 26.8341C50.7615 25.3046 49.0882 24.4984 47.0831 24.0779C46.714 24.0005 46.352 24.237 46.2746 24.6061Z" fill="white"/>
<path fill-rule="evenodd" clip-rule="evenodd" d="M33.6045 16.4148C33.2464 16.8545 32.9914 17.3696 32.8281 17.8293C33.7578 18.1888 34.4423 18.8308 34.9189 19.5464C35.5715 20.5261 35.8508 21.6611 35.8864 22.4817C35.9028 22.8585 35.6107 23.1773 35.2339 23.1936C34.8571 23.21 34.5383 22.9178 34.522 22.5411C34.4956 21.9339 34.2781 21.048 33.7822 20.3035C33.4665 19.8295 33.0455 19.4209 32.4869 19.1672L31.8258 19.0182C30.6575 18.7547 29.7566 18.8186 29.0621 19.0542C28.3696 19.2891 27.8363 19.7103 27.4255 20.2371C26.586 21.3134 26.2742 22.8149 26.2646 23.8833L26.259 24.5142L25.6296 24.5584C24.4824 24.6389 23.9474 25.232 23.7721 25.8444C23.6044 26.4305 23.7455 27.0856 24.1218 27.5338C24.835 27.497 25.4024 27.5881 25.8791 27.7764C26.4909 28.018 26.8967 28.4059 27.1898 28.6861L27.1901 28.6864C27.2251 28.7198 27.2584 28.7517 27.2904 28.7816C27.5655 29.0396 27.5794 29.4717 27.3215 29.7469C27.0635 30.022 26.6314 30.036 26.3562 29.778C26.3407 29.7635 26.3255 29.7491 26.3105 29.735C26.29 29.7156 26.2699 29.6967 26.2502 29.6781C25.9463 29.3909 25.7289 29.1855 25.3774 29.0466C25.0274 28.9084 24.4809 28.8195 23.5318 28.9694C22.8198 29.1638 21.7244 29.8143 21.4102 31.4553C21.2406 32.3407 21.5813 33.0618 22.1549 33.6498C22.7057 34.2145 23.4321 34.6074 23.9609 34.8033H36.2846C37.3356 34.2658 37.9774 33.6701 38.3532 33.0878C38.7418 32.4857 38.8731 31.8564 38.8386 31.231C38.7724 30.0329 38.0925 28.8439 37.4048 28.0527C36.7778 27.8346 36.3064 27.9843 35.932 28.2585C35.4913 28.5812 35.177 29.0924 35.0341 29.4622C34.8982 29.814 34.5028 29.989 34.151 29.8531C33.7992 29.7172 33.6242 29.3218 33.7601 28.97C33.969 28.4293 34.4183 27.6741 35.1251 27.1566C35.8042 26.6594 36.7092 26.3969 37.7639 26.7328C38.2968 26.7293 38.5725 26.5318 38.7314 26.335C38.9111 26.1123 38.9827 25.8344 38.9912 25.6633V17.6304C38.795 16.9269 37.9333 15.4937 35.847 15.3709C34.8526 15.3125 34.1332 15.7654 33.6045 16.4148ZM32.5453 15.5525C33.2768 14.654 34.3888 13.917 35.9272 14.0075C38.8357 14.1786 40.082 16.2842 40.3392 17.3903L40.3569 17.4666V25.6897L40.3565 25.7019C40.3419 26.1112 40.1954 26.6957 39.7942 27.1928C39.582 27.4557 39.3077 27.6822 38.968 27.8429C39.5885 28.7379 40.1331 29.9045 40.2023 31.1557C40.251 32.0378 40.0618 32.959 39.5007 33.8284C38.9431 34.6925 38.0458 35.463 36.7462 36.0995L36.6041 36.1691H23.7309L23.6243 36.133C22.9376 35.9002 21.9486 35.3943 21.1772 34.6035C20.3923 33.7988 19.7914 32.6472 20.0688 31.1984C20.4408 29.2556 21.6406 28.2596 22.6865 27.8223C22.3205 27.0998 22.237 26.2445 22.4591 25.4686C22.7589 24.4209 23.5972 23.5589 24.9277 23.2794C25.0309 22.0873 25.4238 20.5828 26.3485 19.3971C26.9004 18.6895 27.6453 18.0926 28.6234 17.7608C29.4407 17.4835 30.3886 17.4023 31.4764 17.5639C31.6796 16.9301 32.0242 16.1926 32.5453 15.5525ZM35.6863 24.6061C35.7637 24.9753 35.5272 25.3372 35.1581 25.4146C33.3142 25.8012 32.0696 26.485 31.3895 27.5629C30.7074 28.6439 30.4871 30.2895 31.0887 32.8466C31.1751 33.2137 30.9475 33.5813 30.5804 33.6677C30.2133 33.7541 29.8456 33.5265 29.7592 33.1594C29.1193 30.4397 29.2714 28.3604 30.2345 26.8341C31.1995 25.3046 32.8727 24.4984 34.8778 24.0779C35.2469 24.0005 35.6089 24.237 35.6863 24.6061Z" fill="white"/>
<path d="M31.9194 64.0368C31.9194 63.694 32.1974 63.416 32.5402 63.416H49.302C49.6448 63.416 49.9228 63.694 49.9228 64.0368V64.0368C49.9228 64.3797 49.6448 64.6576 49.302 64.6576H32.5402C32.1974 64.6576 31.9194 64.3797 31.9194 64.0368V64.0368Z" fill="white"/>
<path d="M31.9194 61.4296C31.9194 61.0868 32.1974 60.8088 32.5402 60.8088H49.302C49.6448 60.8088 49.9228 61.0868 49.9228 61.4296V61.4296C49.9228 61.7725 49.6448 62.0504 49.302 62.0504H32.5402C32.1974 62.0504 31.9194 61.7725 31.9194 61.4296V61.4296Z" fill="white"/>
<path d="M34 66.5H47L45.5 68.5L42 69.5H39.5L36.5 68.5L34 66.5Z" fill="#C57171"/>
<path fill-rule="evenodd" clip-rule="evenodd" d="M35.8536 67.218C37.4271 68.2853 39.1463 68.855 40.9211 68.855C42.696 68.855 44.4152 68.2853 45.9887 67.218H35.8536ZM33.8009 67.218C33.3639 66.8299 32.9431 66.407 32.5403 65.9521H49.302C48.8992 66.407 48.4784 66.8299 48.0414 67.218C45.9683 69.0594 43.5302 70.1208 40.9211 70.1208C38.3121 70.1208 35.874 69.0594 33.8009 67.218Z" fill="white"/>
</svg>
