<svg width="126" height="135" viewBox="0 0 126 135" fill="none" xmlns="http://www.w3.org/2000/svg">
<rect y="8.40002" width="117.075" height="102.9" rx="19" fill="#D3DCFB"/>
<rect y="8.40002" width="110.775" height="95.025" rx="19" fill="#EBF5FC"/>
<path d="M0 27.4C0 16.9066 8.50659 8.40002 19 8.40002H98.075C108.568 8.40002 117.075 16.9066 117.075 27.4V40.425H0V27.4Z" fill="#C30047"/>
<path d="M0 27.4C0 16.9066 8.50659 8.40002 19 8.40002H91.775C102.268 8.40002 110.775 16.9066 110.775 27.4V40.425H0V27.4Z" fill="#FF4155"/>
<rect x="96.6" y="15.75" width="4.725" height="24.15" rx="2.3625" transform="rotate(90 96.6 15.75)" fill="#E80054"/>
<rect x="45.675" y="15.75" width="4.725" height="24.15" rx="2.3625" transform="rotate(90 45.675 15.75)" fill="#E80054"/>
<rect x="78.225" width="11.55" height="22.575" rx="5.775" fill="#D3DCFB"/>
<rect x="27.3" width="11.55" height="22.575" rx="5.775" fill="#D3DCFB"/>
<rect x="8.92499" y="47.775" width="9.45" height="9.45" rx="4" fill="#2A428C"/>
<rect x="8.92499" y="47.775" width="3.675" height="9.45" rx="1.8375" fill="#3C58A0"/>
<rect x="8.92499" y="67.725" width="9.45" height="9.45" rx="4" fill="#2A428C"/>
<rect x="8.92499" y="67.725" width="3.675" height="9.45" rx="1.8375" fill="#3C58A0"/>
<rect x="8.92499" y="86.625" width="9.45" height="9.45" rx="4" fill="#2A428C"/>
<rect x="8.92499" y="86.625" width="3.675" height="9.45" rx="1.8375" fill="#3C58A0"/>
<rect x="44.625" y="47.775" width="9.45" height="9.45" rx="4" fill="#2A428C"/>
<rect x="44.625" y="47.775" width="3.675" height="9.45" rx="1.8375" fill="#3C58A0"/>
<rect x="44.625" y="67.725" width="9.45" height="9.45" rx="4" fill="#2A428C"/>
<rect x="44.625" y="67.725" width="3.675" height="9.45" rx="1.8375" fill="#3C58A0"/>
<rect x="44.625" y="86.625" width="9.45" height="9.45" rx="4" fill="#2A428C"/>
<rect x="44.625" y="86.625" width="3.675" height="9.45" rx="1.8375" fill="#3C58A0"/>
<rect x="80.325" y="47.775" width="9.45" height="9.45" rx="4" fill="#2A428C"/>
<rect x="80.325" y="47.775" width="3.675" height="9.45" rx="1.8375" fill="#3C58A0"/>
<rect x="26.775" y="47.775" width="9.45" height="9.45" rx="4" fill="#2A428C"/>
<rect x="26.775" y="47.775" width="3.675" height="9.45" rx="1.8375" fill="#3C58A0"/>
<rect x="26.775" y="67.725" width="9.45" height="9.45" rx="4" fill="#2A428C"/>
<rect x="26.775" y="67.725" width="3.675" height="9.45" rx="1.8375" fill="#3C58A0"/>
<rect y="28.875" width="117.075" height="4.2" fill="white"/>
<rect x="26.775" y="86.625" width="9.45" height="9.45" rx="4" fill="#2A428C"/>
<rect x="26.775" y="86.625" width="3.675" height="9.45" rx="1.8375" fill="#3C58A0"/>
<rect x="62.475" y="47.775" width="9.45" height="9.45" rx="4" fill="#2A428C"/>
<rect x="62.475" y="47.775" width="3.675" height="9.45" rx="1.8375" fill="#3C58A0"/>
<rect x="62.475" y="67.725" width="9.45" height="9.45" rx="4" fill="#2A428C"/>
<rect x="62.475" y="67.725" width="3.675" height="9.45" rx="1.8375" fill="#3C58A0"/>
<rect x="98.175" y="47.775" width="9.45" height="9.45" rx="4" fill="#2A428C"/>
<rect x="98.175" y="47.775" width="3.675" height="9.45" rx="1.8375" fill="#3C58A0"/>
<circle cx="92.1375" cy="100.537" r="33.8625" fill="#4FABF7"/>
<path fill-rule="evenodd" clip-rule="evenodd" d="M88.725 134.23C105.824 132.519 119.175 118.087 119.175 100.537C119.175 82.9876 105.824 68.5559 88.725 66.8448C89.8472 66.7325 90.9856 66.675 92.1375 66.675C110.839 66.675 126 81.8357 126 100.537C126 119.239 110.839 134.4 92.1375 134.4C90.9856 134.4 89.8472 134.342 88.725 134.23Z" fill="#1886EA"/>
<ellipse cx="92.1375" cy="100.537" rx="24.9375" ry="24.9375" fill="#EBF5FC"/>
<path fill-rule="evenodd" clip-rule="evenodd" d="M89.25 125.278C101.536 123.729 111.038 113.243 111.038 100.537C111.038 87.8319 101.536 77.3455 89.25 75.797C90.2817 75.667 91.333 75.6 92.4 75.6C106.173 75.6 117.337 86.7649 117.337 100.537C117.337 114.31 106.173 125.475 92.4 125.475C91.333 125.475 90.2817 125.408 89.25 125.278Z" fill="#D3DCFB"/>
<rect x="89.775" y="82.95" width="4.725" height="19.95" rx="2.3625" fill="#3C58A0"/>
<rect x="105.525" y="98.175" width="4.725" height="15.75" rx="2.3625" transform="rotate(90 105.525 98.175)" fill="#3C58A0"/>
<circle cx="91.875" cy="100.8" r="4.725" fill="#FFDD40"/>
<path d="M83.475 5.30453C83.475 2.53908 81.6329 1.3159 80.7118 1.04999C78.9434 2.11362 78.3171 4.32953 78.225 5.30453V16.5375C78.225 19.6875 79.8 20.7375 80.7118 21.525C82.9223 21.525 83.475 17.9795 83.475 16.2068V5.30453Z" fill="#EBF5FC"/>
<path d="M32.55 5.30453C32.55 2.53908 30.7079 1.3159 29.7868 1.04999C28.0184 2.11362 27.3921 4.32953 27.3 5.30453V16.5375C27.3 19.6875 28.875 20.7375 29.7868 21.525C31.9974 21.525 32.55 17.9795 32.55 16.2068V5.30453Z" fill="#EBF5FC"/>
</svg>
