<svg width="194" height="117" viewBox="0 0 194 117" fill="none" xmlns="http://www.w3.org/2000/svg">
<path fill-rule="evenodd" clip-rule="evenodd" d="M14.4869 92.7681C14.2348 92.8155 13.9758 92.8629 13.7237 92.9103C13.2671 92.9916 12.8106 93.0661 12.354 93.1406C11.8089 93.2287 11.2638 93.3032 10.7186 93.3709C10.2076 93.4319 9.68969 93.4928 9.17181 93.5132C7.72039 93.5809 6.14631 93.5267 4.74259 93.1271C3.6455 92.8155 2.637 92.2804 1.87381 91.4066C1.11062 90.5396 0.667699 89.4694 0.429202 88.3451C0.129378 86.943 0.0476074 85.4461 0.0476074 84.0101C0.0476074 82.5674 0.136192 81.0705 0.429202 79.6548C0.667699 78.5237 1.11062 77.4467 1.87381 76.5729C2.637 75.7059 3.6455 75.1641 4.74259 74.8525C6.14631 74.4596 7.72039 74.3987 9.17181 74.4664C9.68969 74.4935 10.2076 74.5477 10.7186 74.6154C11.2706 74.6832 11.8225 74.7577 12.3677 74.8389C12.8378 74.9134 13.308 74.988 13.7782 75.0692C14.0371 75.1166 14.3029 75.1641 14.5618 75.2115L14.9639 75.286L14.8412 77.6093H14.3983C14.1666 77.6093 13.8463 77.5483 13.6079 77.5144C13.1309 77.4467 12.6539 77.3722 12.1769 77.3045C11.6249 77.2232 11.0798 77.1487 10.5278 77.0809C10.0645 77.02 9.59429 76.9658 9.13093 76.9387C8.18375 76.898 7.11392 76.9387 6.20082 77.2367C5.55347 77.4467 4.99471 77.7989 4.59267 78.3611C4.14294 78.991 3.91807 79.7835 3.80223 80.5421C3.63187 81.6801 3.58417 82.8586 3.58417 84.0101C3.58417 85.1548 3.63187 86.3401 3.80223 87.4781C3.91807 88.2367 4.14294 89.0292 4.59267 89.6591C4.99471 90.2213 5.55347 90.5735 6.20082 90.7835C7.11392 91.0747 8.17694 91.1222 9.13093 91.0747C9.56703 91.0544 10.0168 91.0002 10.4529 90.9393C10.9708 90.8715 11.4955 90.7903 12.0133 90.6954C12.4835 90.6141 12.9537 90.5261 13.4239 90.438C13.7101 90.3839 14.0031 90.3229 14.2961 90.2755L14.814 90.1942L14.8753 92.7003L14.4869 92.7681ZM21.7167 75.1641C22.3096 75.0083 22.916 74.8796 23.5089 74.7577C24.5242 74.5612 25.5531 74.4664 26.5821 74.4664C27.8495 74.4664 29.226 74.5883 30.4253 75.0218C31.4065 75.3808 32.2719 75.9362 32.9193 76.7694C33.5871 77.616 33.9755 78.632 34.1867 79.6751C34.4457 80.9621 34.5274 82.31 34.5274 83.624V93.2354H31.0317V83.624C31.0317 82.5741 30.9909 81.4904 30.8341 80.4541C30.7251 79.7564 30.5343 79.0249 30.1527 78.4221C29.8393 77.9208 29.4031 77.5686 28.8648 77.3451C28.1562 77.0538 27.2976 76.9793 26.548 76.9793C25.5736 76.9793 24.606 77.0674 23.6588 77.2638C22.9978 77.4061 22.3368 77.5551 21.6827 77.7379V93.2693H18.296V67.8149H21.6827L21.7167 75.1641ZM41.3484 85.209C41.3689 86.0015 41.4506 86.8143 41.6278 87.5797C41.7914 88.2773 42.0707 88.9479 42.5137 89.5169C42.9225 90.0452 43.454 90.4245 44.0673 90.6683C44.8441 90.9867 45.7504 91.0747 46.5817 91.0747C47.1405 91.0747 47.6993 91.0341 48.258 90.9731C48.8917 90.9054 49.5255 90.8174 50.1524 90.7157C50.7656 90.6141 51.3721 90.5058 51.9786 90.3839C52.4624 90.289 52.9394 90.1942 53.4232 90.0994L53.8729 90.0181L54.3431 92.4971L53.907 92.592C53.3891 92.7071 52.8712 92.802 52.3602 92.89C51.7333 93.0052 51.1132 93.1068 50.4863 93.2084C49.8253 93.3167 49.1575 93.4048 48.4897 93.4793C47.8424 93.547 47.195 93.5809 46.5408 93.5809C45.1439 93.5809 43.6312 93.4386 42.3297 92.9171C41.2735 92.4971 40.3331 91.8672 39.6244 90.9731C38.9158 90.0791 38.4728 89.0359 38.2275 87.9319C37.9481 86.6585 37.8459 85.3445 37.8459 84.044C37.8459 82.5674 37.9754 81.0027 38.4251 79.5939C38.7795 78.4898 39.311 77.4399 40.1219 76.6068C40.8783 75.8279 41.7914 75.2928 42.8271 74.9812C43.9583 74.6357 45.1439 74.507 46.316 74.507C48.6055 74.507 51.011 74.9676 52.7281 76.5932C54.5203 78.3001 54.9359 81.0163 54.9359 83.3802V85.209H41.3484ZM51.4266 82.7367C51.3789 81.2804 51.1336 79.4042 50.1932 78.3476C49.2393 77.2638 47.6856 77.0132 46.316 77.0132C44.9599 77.0132 43.5222 77.2977 42.5886 78.3611C41.6483 79.4245 41.4098 81.2804 41.3552 82.7367H51.4266ZM58.4452 90.6209C59.2561 90.7293 60.0806 90.8309 60.8915 90.919C61.5321 90.9935 62.1726 91.0409 62.8131 91.0409H63.4877C63.9511 91.0409 64.4077 90.9799 64.8642 90.9054C65.2254 90.8512 65.5797 90.7496 65.8932 90.5871C66.1521 90.4516 66.3429 90.2484 66.486 89.991C66.6632 89.6456 66.704 89.1917 66.704 88.8124C66.704 88.4941 66.6291 88.169 66.5269 87.8709C66.4042 87.5187 66.1521 87.2342 65.8523 87.0107C65.607 86.8278 65.348 86.6517 65.0959 86.4756C64.7484 86.225 64.4008 85.9812 64.0465 85.7441C63.6308 85.4664 63.2152 85.1954 62.7927 84.9313C62.3498 84.6536 61.9205 84.3691 61.4844 84.0846C60.9869 83.7595 60.4963 83.4411 60.0261 83.0889C59.6105 82.7773 59.2289 82.4251 58.9086 82.0187C58.6088 81.6259 58.3703 81.1924 58.2204 80.7182C58.05 80.2035 57.9887 79.648 57.9887 79.1062V78.5778C57.9887 78.0292 58.1795 77.5144 58.4452 77.0403C58.7382 76.5052 59.1675 76.0717 59.665 75.7263C60.2578 75.3131 60.9529 75.0286 61.6479 74.8389C62.5474 74.5816 63.5218 74.507 64.4554 74.507C64.9119 74.507 65.3685 74.507 65.825 74.5206C66.227 74.5341 66.6291 74.5477 67.0311 74.5748C67.44 74.6019 67.842 74.6357 68.2509 74.6832C68.7074 74.7373 69.164 74.7915 69.6205 74.8593L70.118 74.927L69.5796 77.3451L69.1572 77.2909C68.4348 77.1893 67.7057 77.0945 66.9766 77.0267C66.3633 76.9726 65.7432 76.9387 65.1231 76.9387H64.4554C63.7535 76.9387 62.636 77.0064 62.0704 77.4873C61.7024 77.7854 61.3822 78.185 61.3822 78.6862V79.1062C61.3822 79.6006 61.4639 80.1628 61.7774 80.5624C62.1794 81.0637 62.8949 81.531 63.4264 81.8629C63.9307 82.1677 64.4213 82.4725 64.9119 82.7977C65.3616 83.0889 65.8046 83.3802 66.2543 83.6714C66.6223 83.9153 66.997 84.1591 67.3582 84.4097C67.6171 84.5926 67.8761 84.7755 68.1282 84.9719C68.8028 85.507 69.4774 86.1776 69.7704 87.0039C69.9612 87.5458 70.1316 88.1622 70.1316 88.7379C70.1316 89.6049 69.9612 90.4855 69.4433 91.2034C69.0004 91.813 68.4417 92.2872 67.7602 92.6123C67.0924 92.9306 66.3838 93.1338 65.6478 93.2287C64.9732 93.3167 64.285 93.4116 63.5968 93.4116H62.929C62.1453 93.4116 61.3685 93.3641 60.5917 93.2829C59.7331 93.1948 58.8745 93.1 58.0228 92.9848L57.5321 92.9171L58.0159 90.5735L58.4452 90.6209ZM77.5795 75.1641C78.1655 75.0083 78.772 74.8796 79.3716 74.7577C80.3801 74.5612 81.4091 74.4664 82.438 74.4664C83.7055 74.4664 85.0819 74.5883 86.288 75.0218C87.2625 75.3808 88.1347 75.9362 88.782 76.7694C89.443 77.616 89.8314 78.632 90.0495 79.6751C90.3084 80.9621 90.3902 82.31 90.3902 83.624V93.2354H86.8877V83.624C86.8877 82.5741 86.8468 81.4904 86.6901 80.4541C86.5879 79.7564 86.3902 79.0249 86.0155 78.4221C85.6952 77.9208 85.2659 77.5686 84.7208 77.3451C84.0121 77.0538 83.1603 76.9793 82.4039 76.9793C81.4363 76.9793 80.4687 77.0674 79.5147 77.2638C78.8606 77.4061 78.1928 77.5551 77.5454 77.7379V93.2693H74.152V67.8149H77.5386L77.5795 75.1641ZM98.1311 75.1641C98.7239 75.0083 99.3304 74.8796 99.9232 74.7577C100.939 74.5612 101.967 74.4664 102.996 74.4664C104.264 74.4664 105.64 74.5883 106.84 75.0218C107.821 75.3808 108.686 75.9362 109.334 76.7694C110.001 77.616 110.39 78.632 110.601 79.6751C110.86 80.9621 110.942 82.31 110.942 83.624V93.2354H107.446V83.624C107.446 82.5741 107.405 81.4904 107.248 80.4541C107.139 79.7564 106.942 79.0249 106.567 78.4221C106.254 77.9208 105.818 77.5686 105.272 77.3451C104.571 77.0538 103.712 76.9793 102.956 76.9793C101.988 76.9793 101.02 77.0674 100.073 77.2638C99.4122 77.4061 98.7512 77.5551 98.097 77.7379V93.2693H94.7104V67.8149H98.097L98.1311 75.1641ZM119.732 74.8525H124.052V77.3654H119.732V87.2681C119.732 87.9658 119.746 88.6702 119.807 89.3611C119.841 89.7336 119.902 90.1874 120.052 90.5329C120.127 90.709 120.236 90.8851 120.4 90.9731C120.604 91.0883 120.904 91.1086 121.136 91.1086H121.354C121.654 91.1086 121.96 91.0747 122.253 91.0273C122.662 90.9664 123.071 90.8715 123.48 90.7767L124.175 90.6006L123.691 93.2287L123.384 93.2964C122.908 93.3912 122.41 93.4861 121.919 93.5267C121.586 93.5606 121.245 93.5809 120.911 93.5809C120.168 93.5809 119.344 93.5132 118.649 93.2354C118.049 92.9916 117.558 92.6055 117.204 92.0569C116.822 91.4676 116.632 90.7564 116.536 90.0655C116.414 89.1443 116.386 88.1961 116.386 87.2681V77.3654H112.475V74.8525H116.386V70.3346H119.732V74.8525ZM138.096 81.7613V80.4676C138.096 79.5803 137.953 78.483 137.245 77.8599C136.536 77.2299 135.452 77.0809 134.533 77.0809C133.538 77.0809 132.536 77.1283 131.534 77.2029C130.43 77.2841 129.32 77.3857 128.223 77.5009L127.807 77.5415L127.228 74.9812L127.746 74.927C128.89 74.8118 130.028 74.7035 131.166 74.6086C132.277 74.5206 133.388 74.4664 134.498 74.4664C136.291 74.4664 138.383 74.7509 139.766 76.0107C141.047 77.1758 141.483 78.8149 141.483 80.5083V91.9553L141.156 92.0569C139.868 92.4633 138.546 92.7816 137.224 93.0661C135.555 93.4251 133.824 93.547 132.12 93.547C130.499 93.547 128.89 93.188 127.643 92.1043C126.396 91.0138 125.953 89.483 125.953 87.8642C125.953 86.3605 126.403 84.999 127.521 83.9627C128.788 82.7841 130.819 82.3913 132.488 82.249L138.096 81.7613ZM138.09 84.2675L132.829 84.7145C131.97 84.789 130.744 84.9922 130.131 85.6696C129.585 86.2724 129.415 87.0649 129.415 87.8642C129.415 88.6973 129.585 89.5575 130.158 90.201C130.689 90.797 131.405 91.0273 132.195 91.0409C133.354 91.0544 134.512 90.946 135.643 90.7361C136.447 90.5871 137.265 90.4245 138.055 90.2348L138.09 84.2675ZM145.694 90.6209C146.512 90.7293 147.323 90.8309 148.147 90.919C148.781 90.9935 149.422 91.0409 150.069 91.0409H150.737C151.2 91.0409 151.657 90.9799 152.12 90.9054C152.474 90.8512 152.829 90.7496 153.149 90.5871C153.408 90.4516 153.599 90.2484 153.735 89.991C153.919 89.6456 153.96 89.1917 153.96 88.8124C153.96 88.4941 153.878 88.169 153.783 87.8709C153.66 87.5187 153.401 87.2342 153.108 87.0107C152.856 86.8278 152.597 86.6517 152.345 86.4756C152.004 86.225 151.65 85.9812 151.295 85.7441C150.88 85.4664 150.464 85.1954 150.042 84.9313C149.605 84.6536 149.169 84.3691 148.733 84.0846C148.243 83.7595 147.752 83.4411 147.275 83.0889C146.866 82.7773 146.485 82.4251 146.164 82.0187C145.858 81.6259 145.626 81.1924 145.476 80.7182C145.306 80.2035 145.244 79.648 145.244 79.1062V78.5778C145.244 78.0292 145.435 77.5144 145.694 77.0403C145.987 76.5052 146.416 76.0717 146.914 75.7263C147.507 75.3131 148.202 75.0286 148.897 74.8389C149.796 74.5816 150.771 74.507 151.704 74.507C152.161 74.507 152.617 74.507 153.074 74.5206C153.476 74.5341 153.878 74.5477 154.287 74.5748C154.689 74.6019 155.098 74.6357 155.5 74.6832C155.956 74.7373 156.413 74.7915 156.869 74.8593L157.367 74.927L156.829 77.3451L156.406 77.2909C155.684 77.1893 154.955 77.0945 154.232 77.0267C153.612 76.9726 152.992 76.9387 152.372 76.9387H151.704C151.002 76.9387 149.892 77.0064 149.319 77.4873C148.951 77.7854 148.631 78.185 148.631 78.6862V79.1062C148.631 79.6006 148.713 80.1628 149.033 80.5624C149.428 81.0637 150.144 81.531 150.682 81.8629C151.18 82.1677 151.67 82.4725 152.161 82.7977C152.611 83.0889 153.06 83.3802 153.503 83.6714C153.871 83.9153 154.246 84.1591 154.614 84.4097C154.873 84.5926 155.132 84.7755 155.377 84.9719C156.059 85.507 156.726 86.1776 157.019 87.0039C157.21 87.5458 157.38 88.1622 157.38 88.7379C157.38 89.6049 157.217 90.4855 156.699 91.2034C156.256 91.813 155.691 92.2872 155.016 92.6123C154.348 92.9306 153.64 93.1338 152.904 93.2287C152.222 93.3167 151.534 93.4116 150.846 93.4116H150.178C149.401 93.4116 148.617 93.3641 147.841 93.2829C146.989 93.1948 146.13 93.1 145.278 92.9848L144.781 92.9171L145.265 90.5735L145.694 90.6209ZM166.559 93.2693H165.646L158.743 74.8186H162.307L167.868 89.9571L173.503 74.8186H177.067L167.888 99.0131H164.365L166.559 93.2693ZM190.566 81.7613V80.4676C190.566 79.5803 190.423 78.483 189.714 77.8599C189.005 77.2299 187.922 77.0809 187.009 77.0809C186.007 77.0809 185.005 77.1283 184.01 77.2029C182.9 77.2841 181.789 77.3857 180.685 77.5009L180.276 77.5415L179.697 74.9812L180.222 74.927C181.353 74.8118 182.498 74.7035 183.636 74.6086C184.746 74.5206 185.857 74.4664 186.968 74.4664C188.76 74.4664 190.852 74.7509 192.235 76.0107C193.516 77.1758 193.952 78.8149 193.952 80.5083V91.9553L193.625 92.0569C192.337 92.4633 191.015 92.7816 189.693 93.0661C188.024 93.4251 186.293 93.547 184.59 93.547C182.968 93.547 181.36 93.188 180.113 92.1043C178.866 91.0138 178.423 89.483 178.423 87.8642C178.423 86.3605 178.872 84.999 179.99 83.9627C181.257 82.7841 183.295 82.3913 184.958 82.249L190.566 81.7613ZM190.566 84.2675L185.298 84.7145C184.44 84.789 183.213 84.9922 182.6 85.6696C182.055 86.2724 181.884 87.0649 181.884 87.8642C181.884 88.6973 182.055 89.5575 182.627 90.201C183.159 90.797 183.874 91.0273 184.665 91.0409C185.823 91.0544 186.981 90.946 188.113 90.7361C188.923 90.5871 189.734 90.4245 190.532 90.2348L190.566 84.2675Z" fill="#727271"/>
<path fill-rule="evenodd" clip-rule="evenodd" d="M30.9228 0C47.9992 0 61.8456 13.7567 61.8456 30.7376C61.8456 47.7117 47.9992 61.4685 30.9228 61.4685C13.8464 61.4685 0 47.7117 0 30.7376C0 13.7567 13.8464 0 30.9228 0Z" fill="#FEFEFE"/>
<path fill-rule="evenodd" clip-rule="evenodd" d="M0 30.7718C0 47.0415 12.7221 60.3579 28.8172 61.4349V35.7976H28.8104C26.0915 24.1271 11.6659 25.3395 5.02887 37.1388C9.26049 21.9461 21.0831 16.8999 36.2924 16.1955L36.2856 22.0138C37.4372 24.8451 44.2514 24.7706 45.2735 22.3389V19.765C45.2735 17.9295 46.7931 16.4258 48.6397 16.4258C50.4864 16.4258 51.9991 17.9295 51.9991 19.765V34.6326C51.9991 36.4682 50.4864 37.9719 48.6397 37.9719C46.7931 37.9719 45.2735 36.4682 45.2735 34.6326V31.7201C42.9362 29.6135 35.3588 29.5865 36.1152 35.8857L36.1902 61.0624C50.7589 58.5765 61.8456 45.9577 61.8456 30.7718C61.8456 13.7977 47.9992 0.0341797 30.9228 0.0341797C13.8464 0.0341797 0 13.7977 0 30.7718Z" fill="#ED701E"/>
<path fill-rule="evenodd" clip-rule="evenodd" d="M163.077 0C180.154 0 193.993 13.7567 193.993 30.7376C193.993 47.7117 180.154 61.4685 163.077 61.4685C146.001 61.4685 132.154 47.7117 132.154 30.7376C132.154 13.7567 146.001 0 163.077 0Z" fill="#FEFEFE"/>
<path fill-rule="evenodd" clip-rule="evenodd" d="M166.907 61.3534C182.177 59.4772 194 46.54 194 30.8528C194 13.8787 180.154 0.115234 163.077 0.115234C146.001 0.115234 132.154 13.8787 132.154 30.8528C132.154 46.54 143.977 59.4772 159.248 61.3534L161.06 44.9618C161.667 39.4686 155.929 38.5745 151.432 39.1638V35.7635H163.016H163.132H174.723V39.1638C170.225 38.5745 164.488 39.4686 165.094 44.9618L166.907 61.3534ZM151.466 28.8953H174.689V12.6054C169.149 15.7143 151.466 2.26917 151.466 14.8948V28.8953ZM151.514 34.9778H174.641V29.9588H151.514V34.9778Z" fill="#FBBE00"/>
<path fill-rule="evenodd" clip-rule="evenodd" d="M96.6594 0C113.736 0 127.575 13.7567 127.575 30.7376C127.575 47.7117 113.736 61.4685 96.6594 61.4685C79.5762 61.4685 65.7366 47.7117 65.7366 30.7376C65.7366 13.7567 79.5762 0 96.6594 0Z" fill="#FEFEFE"/>
<path fill-rule="evenodd" clip-rule="evenodd" d="M96.6594 0C113.736 0 127.575 13.7567 127.575 30.7376C127.575 47.7117 113.736 61.4685 96.6594 61.4685C79.5762 61.4685 65.7366 47.7117 65.7366 30.7376C65.7366 13.7567 79.5762 0 96.6594 0ZM107.746 25.5763C112.666 31.9839 113.225 41.067 108.182 47.5695C106.99 49.107 106.363 49.8182 106.717 50.5972C107.29 51.1594 108.455 51.0374 110.601 49.4592C118.376 43.2819 118.547 30.6225 111.255 23.6052C107.303 20.2186 103.937 20.8688 107.746 25.5763ZM105.6 39.9901C101.17 46.7363 92.7344 50.2856 84.8913 47.7253C83.031 47.1224 82.152 46.777 81.5251 47.3663C81.1843 48.0843 81.6886 49.1409 83.9032 50.6243C92.3528 55.8533 104.414 51.7961 108.646 42.6249C110.547 37.7887 108.802 34.8558 105.6 39.9901ZM90.7719 43.0245C83.0037 40.7284 77.164 33.7111 77.3957 25.5086C77.4502 23.5646 77.5319 22.6231 76.7824 22.1964C75.9919 22.0812 75.1197 22.8602 74.3225 25.3934C71.6922 34.9371 79.0515 45.2665 89.1024 46.6822C94.3017 47.1089 96.6389 44.6095 90.7719 43.0245ZM84.3393 29.62C84.0804 21.5665 88.9321 13.8516 96.8366 11.4673C98.7105 10.9051 99.6304 10.6884 99.8007 9.8485C99.6644 9.06279 98.6423 8.48705 95.9711 8.53446C86.0361 9.07633 78.4996 19.2771 80.3258 29.2001C81.5659 34.2395 84.6868 35.6551 84.3393 29.62ZM94.3357 19.1145C102.07 16.7032 110.853 19.2771 115.276 26.213C116.325 27.8522 116.782 28.6785 117.64 28.6175C118.369 28.2721 118.649 27.1409 117.886 24.6009C114.703 15.2198 102.792 10.7426 93.6611 15.1588C89.1093 17.6921 88.5846 21.0585 94.3357 19.1145ZM82.7107 13.0184C86.0633 7.40331 80.0804 6.00122 77.3616 15.1521C77.164 15.8091 76.4894 18.8165 77.2526 19.1619C78.6222 19.7783 81.9748 14.258 82.7107 13.0184ZM75.1538 39.5295C70.8131 34.6323 67.6241 39.8546 75.549 45.2462C76.1146 45.6391 78.7858 47.2037 79.3513 46.5873C80.3598 45.4833 76.1146 40.6132 75.1538 39.5295ZM118.574 37.5855C119.262 44.0744 124.904 41.6495 121.579 32.6951C121.34 32.0517 120.08 29.2407 119.255 29.4168C117.79 29.7352 118.424 36.1495 118.574 37.5855ZM88.5641 23.7881C87.2354 25.9014 85.709 24.1336 88.3597 21.6003C88.5437 21.4242 89.4568 20.6656 89.7089 20.862C90.1586 21.2142 88.8639 23.3208 88.5641 23.7881Z" fill="#93C02C"/>
<path d="M0 104.05C0 104.551 0.408852 104.944 0.913102 104.944C1.41735 104.944 1.83302 104.551 1.83302 104.05C1.83302 103.535 1.43098 103.135 0.913102 103.135C0.408852 103.135 0 103.535 0 104.05ZM1.57408 106.359H0.265754V113.065H1.57408V106.359ZM7.7273 106.156C6.31676 106.156 5.06295 106.271 3.95223 106.488V113.065H5.26737V107.518C6.05782 107.402 6.79375 107.348 7.45473 107.348C8.53818 107.348 9.19916 108.053 9.19916 109.184V113.065H10.5143V108.825C10.5143 107.179 9.44447 106.156 7.7273 106.156ZM12.1701 112.652C13.165 113.065 14.1735 113.282 15.182 113.282C16.9265 113.282 18.0508 112.537 18.0508 111.148C18.0508 110.545 17.8532 110.112 17.4443 109.841C17.0423 109.57 16.3949 109.353 15.4887 109.17L15.3251 109.136C14.2621 108.899 13.7579 108.784 13.6965 108.168C13.6965 107.551 14.1599 107.233 15.1003 107.233C15.7749 107.233 16.5994 107.375 17.5329 107.68L17.8532 106.644C17.0014 106.332 16.1088 106.177 15.1684 106.177C13.4376 106.177 12.4018 106.935 12.4018 108.249C12.4018 109.326 13.1105 109.854 14.6641 110.159C15.3864 110.315 15.8157 110.417 15.9657 110.457C16.538 110.633 16.8242 110.904 16.8242 111.263C16.8242 111.846 16.1905 112.191 15.257 112.191C14.4052 112.191 13.4853 111.975 12.4563 111.561L12.1701 112.652ZM23.4749 106.156C22.2892 106.156 21.0967 106.271 19.8974 106.488V116.337H21.2126V112.984C21.8872 113.079 22.6776 113.14 23.5635 113.14C24.5584 113.14 25.3488 112.821 25.9553 112.178C26.5754 111.534 26.8752 110.701 26.8752 109.685C26.8616 108.608 26.5413 107.748 25.9416 107.118C25.3488 106.475 24.5243 106.156 23.4749 106.156ZM23.3863 112.022C22.5822 112.022 21.8599 111.961 21.2126 111.846V107.423C21.9485 107.321 22.6504 107.26 23.2977 107.26C24.7969 107.26 25.5669 108.236 25.5669 109.726C25.5669 110.39 25.3624 110.931 24.9604 111.378C24.572 111.805 24.0337 112.022 23.3863 112.022ZM28.5038 104.05C28.5038 104.551 28.9058 104.944 29.4169 104.944C29.9211 104.944 30.3368 104.551 30.3368 104.05C30.3368 103.535 29.9348 103.135 29.4169 103.135C28.9058 103.135 28.5038 103.535 28.5038 104.05ZM30.0779 106.359H28.7627V113.065H30.0779V106.359ZM36.4082 106.177C35.2089 106.177 33.8802 106.305 32.456 106.563V113.065H33.7643V107.592C34.473 107.518 35.352 107.477 36.4082 107.477V106.177ZM37.8733 104.05C37.8733 104.551 38.2821 104.944 38.7864 104.944C39.2906 104.944 39.7063 104.551 39.7063 104.05C39.7063 103.535 39.3043 103.135 38.7864 103.135C38.2821 103.135 37.8733 103.535 37.8733 104.05ZM39.4474 106.359H38.139V113.065H39.4474V106.359ZM45.6006 106.156C44.19 106.156 42.9362 106.271 41.8255 106.488V113.065H43.1407V107.518C43.9311 107.402 44.667 107.348 45.328 107.348C46.4115 107.348 47.0724 108.053 47.0724 109.184V113.065H48.3876V108.825C48.3876 107.179 47.3178 106.156 45.6006 106.156ZM53.505 106.156C52.4488 106.156 51.6175 106.475 51.0111 107.118C50.4046 107.761 50.1048 108.608 50.1048 109.685C50.1048 110.701 50.4046 111.534 51.0111 112.178C51.6311 112.821 52.4216 113.14 53.4165 113.14C54.2955 113.14 55.0723 113.079 55.7537 112.984C55.7401 114.542 54.7997 115.476 53.287 115.476C52.7827 115.476 52.0468 115.348 51.0792 115.104L50.8543 116.188C51.7334 116.492 52.5511 116.648 53.3279 116.648C55.7128 116.648 57.0825 115.172 57.0825 112.923V106.488L56.5782 106.414C56.2989 106.373 56.1013 106.332 55.9582 106.319C55.4812 106.258 54.4863 106.156 53.505 106.156ZM53.6754 107.26C54.3432 107.26 55.0314 107.321 55.7537 107.423V111.846C55.12 111.961 54.3977 112.022 53.5936 112.022C52.9395 112.022 52.408 111.805 52.0059 111.378C51.6039 110.931 51.3995 110.39 51.3995 109.726C51.3995 108.236 52.1763 107.26 53.6754 107.26ZM62.6565 104.05C62.6565 104.551 63.0654 104.944 63.5696 104.944C64.0739 104.944 64.4895 104.551 64.4895 104.05C64.4895 103.535 64.0875 103.135 63.5696 103.135C63.0654 103.135 62.6565 103.535 62.6565 104.05ZM64.2306 106.359H62.9154V113.065H64.2306V106.359ZM70.3838 106.156C68.9733 106.156 67.7195 106.271 66.6087 106.488V113.065H67.9239V107.518C68.7143 107.402 69.4503 107.348 70.1112 107.348C71.1947 107.348 71.8557 108.053 71.8557 109.184V113.065H73.1708V108.825C73.1708 107.179 72.101 106.156 70.3838 106.156ZM79.2218 106.156C77.8113 106.156 76.5575 106.271 75.4467 106.488V113.065H76.7551V107.518C77.5523 107.402 78.2883 107.348 78.9492 107.348C80.0327 107.348 80.6937 108.053 80.6937 109.184V113.065H82.0088V108.825C82.0088 107.179 80.939 106.156 79.2218 106.156ZM91.1739 109.672C91.1739 108.595 90.8264 107.734 90.1382 107.077C89.4567 106.414 88.5641 106.088 87.4534 106.088C86.3426 106.088 85.45 106.414 84.7617 107.077C84.0667 107.734 83.7192 108.595 83.7192 109.672C83.7192 110.762 84.0667 111.636 84.7617 112.306C85.45 112.984 86.3426 113.309 87.4534 113.309C88.5641 113.309 89.4567 112.984 90.1382 112.306C90.8264 111.636 91.1739 110.762 91.1739 109.672ZM89.8315 109.672C89.8315 111.114 88.8843 112.103 87.4534 112.103C86.7515 112.103 86.1723 111.88 85.7226 111.433C85.2796 110.986 85.0616 110.403 85.0616 109.672C85.0616 108.236 86.0292 107.294 87.4534 107.294C88.8843 107.294 89.8315 108.236 89.8315 109.672ZM96.2096 113.065L99.2624 106.359H97.8041L95.5009 111.507L93.1773 106.359H91.7259L94.7922 113.065H96.2096ZM103.215 106.156C102.158 106.156 101.327 106.475 100.721 107.118C100.128 107.761 99.8279 108.608 99.8143 109.685C99.8143 110.762 100.114 111.636 100.721 112.293C101.327 112.95 102.131 113.282 103.126 113.282C103.916 113.282 104.7 113.024 105.463 112.523V113.065H106.792V106.488C105.436 106.271 104.237 106.156 103.215 106.156ZM103.385 107.26C104.053 107.26 104.741 107.321 105.463 107.423V111.392C104.741 111.907 104.019 112.164 103.303 112.164C101.974 112.164 101.109 111.175 101.109 109.726C101.109 108.236 101.886 107.26 103.385 107.26ZM113.668 111.995C113.177 112.063 112.754 112.103 112.414 112.103C111.473 112.103 111.099 111.602 111.099 110.552V107.538H113.409V106.359H111.099V103.677H109.77V106.359H108.271V107.538H109.77V110.681C109.77 112.422 110.567 113.282 112.168 113.282C112.673 113.282 113.218 113.207 113.811 113.079L113.668 111.995ZM115.18 104.05C115.18 104.551 115.582 104.944 116.087 104.944C116.591 104.944 117.013 104.551 117.013 104.05C117.013 103.535 116.604 103.135 116.087 103.135C115.582 103.135 115.18 103.535 115.18 104.05ZM116.748 106.359H115.439V113.065H116.748V106.359ZM122.574 113.065L125.633 106.359H124.175L121.872 111.507L119.548 106.359H118.09L121.163 113.065H122.574ZM129.695 106.143C128.672 106.143 127.834 106.475 127.173 107.132C126.512 107.775 126.178 108.635 126.178 109.699C126.178 110.762 126.512 111.622 127.16 112.293C127.821 112.95 128.747 113.282 129.926 113.282C130.676 113.282 131.568 113.126 132.611 112.794L132.407 111.731C131.323 111.975 130.519 112.103 129.974 112.103C128.659 112.103 127.807 111.378 127.596 110.213H132.897C132.938 109.868 132.972 109.543 132.972 109.211C132.959 108.283 132.652 107.551 132.045 106.989C131.439 106.434 130.662 106.143 129.695 106.143ZM127.548 109.197C127.705 107.978 128.516 107.193 129.729 107.193C130.935 107.193 131.759 107.978 131.773 109.197H127.548ZM138.192 104.05C138.192 104.551 138.594 104.944 139.098 104.944C139.602 104.944 140.018 104.551 140.018 104.05C140.018 103.535 139.616 103.135 139.098 103.135C138.594 103.135 138.192 103.535 138.192 104.05ZM139.759 106.359H138.451V113.065H139.759V106.359ZM145.919 106.156C144.502 106.156 143.248 106.271 142.137 106.488V113.065H143.452V107.518C144.243 107.402 144.979 107.348 145.64 107.348C146.723 107.348 147.384 108.053 147.384 109.184V113.065H148.699V108.825C148.699 107.179 147.63 106.156 145.919 106.156ZM155.37 111.995C154.887 112.063 154.464 112.103 154.117 112.103C153.183 112.103 152.808 111.602 152.808 110.552V107.538H155.111V106.359H152.808V103.677H151.48V106.359H149.98V107.538H151.48V110.681C151.48 112.422 152.277 113.282 153.871 113.282C154.376 113.282 154.928 113.207 155.52 113.079L155.37 111.995ZM160.031 106.143C159.009 106.143 158.171 106.475 157.51 107.132C156.842 107.775 156.515 108.635 156.515 109.699C156.515 110.762 156.842 111.622 157.49 112.293C158.157 112.95 159.077 113.282 160.263 113.282C161.013 113.282 161.905 113.126 162.941 112.794L162.743 111.731C161.66 111.975 160.849 112.103 160.304 112.103C158.996 112.103 158.144 111.378 157.926 110.213H163.234C163.275 109.868 163.302 109.543 163.302 109.211C163.289 108.283 162.989 107.551 162.382 106.989C161.776 106.434 160.999 106.143 160.031 106.143ZM157.885 109.197C158.042 107.978 158.846 107.193 160.059 107.193C161.272 107.193 162.089 107.978 162.11 109.197H157.885ZM169.087 106.177C167.888 106.177 166.559 106.305 165.135 106.563V113.065H166.443V107.592C167.152 107.518 168.031 107.477 169.087 107.477V106.177ZM170.552 104.05C170.552 104.551 170.961 104.944 171.466 104.944C171.97 104.944 172.385 104.551 172.385 104.05C172.385 103.535 171.983 103.135 171.466 103.135C170.961 103.135 170.552 103.535 170.552 104.05ZM172.127 106.359H170.811V113.065H172.127V106.359ZM181.394 109.672C181.394 108.595 181.053 107.734 180.358 107.077C179.683 106.414 178.784 106.088 177.673 106.088C176.569 106.088 175.67 106.414 174.982 107.077C174.287 107.734 173.946 108.595 173.946 109.672C173.946 110.762 174.287 111.636 174.982 112.306C175.67 112.984 176.569 113.309 177.673 113.309C178.784 113.309 179.683 112.984 180.358 112.306C181.053 111.636 181.394 110.762 181.394 109.672ZM180.058 109.672C180.058 111.114 179.104 112.103 177.673 112.103C176.971 112.103 176.392 111.88 175.949 111.433C175.5 110.986 175.281 110.403 175.281 109.672C175.281 108.236 176.249 107.294 177.673 107.294C179.104 107.294 180.058 108.236 180.058 109.672ZM187.179 106.177C185.98 106.177 184.651 106.305 183.227 106.563V113.065H184.542V107.592C185.244 107.518 186.123 107.477 187.179 107.477V106.177ZM188.113 112.652C189.107 113.065 190.116 113.282 191.124 113.282C192.869 113.282 193.993 112.537 193.993 111.148C193.993 110.545 193.796 110.112 193.394 109.841C192.985 109.57 192.337 109.353 191.431 109.17L191.274 109.136C190.205 108.899 189.7 108.784 189.646 108.168C189.646 107.551 190.102 107.233 191.043 107.233C191.717 107.233 192.542 107.375 193.475 107.68L193.796 106.644C192.944 106.332 192.051 106.177 191.111 106.177C189.38 106.177 188.344 106.935 188.344 108.249C188.344 109.326 189.053 109.854 190.607 110.159C191.329 110.315 191.765 110.417 191.908 110.457C192.481 110.633 192.774 110.904 192.774 111.263C192.774 111.846 192.14 112.191 191.199 112.191C190.348 112.191 189.428 111.975 188.406 111.561L188.113 112.652Z" fill="#727271"/>
</svg>
