<svg width="194" height="49" viewBox="0 0 194 49" fill="none" xmlns="http://www.w3.org/2000/svg">
<path fill-rule="evenodd" clip-rule="evenodd" d="M14.4869 24.9531C14.2348 25.0006 13.9758 25.048 13.7237 25.0954C13.2671 25.1767 12.8106 25.2512 12.354 25.3257C11.8089 25.4137 11.2638 25.4882 10.7186 25.556C10.2076 25.6169 9.68969 25.6779 9.17181 25.6982C7.72039 25.7659 6.14631 25.7118 4.74259 25.3121C3.6455 25.0006 2.637 24.4655 1.87381 23.5917C1.11062 22.7247 0.667699 21.6545 0.429202 20.5301C0.129378 19.128 0.0476074 17.6311 0.0476074 16.1952C0.0476074 14.7524 0.136192 13.2555 0.429202 11.8399C0.667699 10.7087 1.11062 9.63175 1.87381 8.75798C2.637 7.89099 3.6455 7.34912 4.74259 7.03754C6.14631 6.64469 7.72039 6.58373 9.17181 6.65146C9.68969 6.67856 10.2076 6.73274 10.7186 6.80048C11.2706 6.86821 11.8225 6.94272 12.3677 7.024C12.8378 7.09851 13.308 7.17301 13.7782 7.25429C14.0371 7.30171 14.3029 7.34912 14.5618 7.39653L14.9639 7.47104L14.8412 9.79431H14.3983C14.1666 9.79431 13.8463 9.73335 13.6079 9.69948C13.1309 9.63175 12.6539 9.55724 12.1769 9.48951C11.6249 9.40823 11.0798 9.33372 10.5278 9.26599C10.0645 9.20503 9.59429 9.15084 9.13093 9.12375C8.18375 9.08311 7.11392 9.12375 6.20082 9.42178C5.55347 9.63175 4.99471 9.98397 4.59267 10.5462C4.14294 11.1761 3.91807 11.9686 3.80223 12.7272C3.63187 13.8651 3.58417 15.0437 3.58417 16.1952C3.58417 17.3399 3.63187 18.5252 3.80223 19.6631C3.91807 20.4217 4.14294 21.2142 4.59267 21.8442C4.99471 22.4064 5.55347 22.7586 6.20082 22.9685C7.11392 23.2598 8.17694 23.3072 9.13093 23.2598C9.56703 23.2395 10.0168 23.1853 10.4529 23.1243C10.9708 23.0566 11.4955 22.9753 12.0133 22.8805C12.4835 22.7992 12.9537 22.7112 13.4239 22.6231C13.7101 22.5689 14.0031 22.508 14.2961 22.4605L14.814 22.3793L14.8753 24.8854L14.4869 24.9531ZM21.7167 7.34912C22.3096 7.19333 22.916 7.06464 23.5089 6.94272C24.5242 6.74629 25.5531 6.65146 26.5821 6.65146C27.8495 6.65146 29.226 6.77338 30.4253 7.20688C31.4065 7.56587 32.2719 8.12129 32.9193 8.95441C33.5871 9.80109 33.9755 10.8171 34.1867 11.8602C34.4457 13.1471 34.5274 14.495 34.5274 15.8091V25.4205H31.0317V15.8091C31.0317 14.7592 30.9909 13.6755 30.8341 12.6391C30.7251 11.9415 30.5343 11.2099 30.1527 10.6071C29.8393 10.1059 29.4031 9.75367 28.8648 9.53015C28.1562 9.23889 27.2976 9.16439 26.548 9.16439C25.5736 9.16439 24.606 9.25244 23.6588 9.44887C22.9978 9.59111 22.3368 9.74012 21.6827 9.92301V25.4544H18.296V0H21.6827L21.7167 7.34912ZM41.3484 17.394C41.3689 18.1865 41.4506 18.9993 41.6278 19.7647C41.7914 20.4624 42.0707 21.133 42.5137 21.7019C42.9225 22.2302 43.454 22.6096 44.0673 22.8534C44.8441 23.1717 45.7504 23.2598 46.5817 23.2598C47.1405 23.2598 47.6993 23.2192 48.258 23.1582C48.8917 23.0905 49.5255 23.0024 50.1524 22.9008C50.7656 22.7992 51.3721 22.6908 51.9786 22.5689C52.4624 22.4741 52.9394 22.3793 53.4232 22.2844L53.8729 22.2031L54.3431 24.6822L53.907 24.777C53.3891 24.8922 52.8712 24.987 52.3602 25.0751C51.7333 25.1902 51.1132 25.2918 50.4863 25.3934C49.8253 25.5018 49.1575 25.5898 48.4897 25.6643C47.8424 25.7321 47.195 25.7659 46.5408 25.7659C45.1439 25.7659 43.6312 25.6237 42.3297 25.1022C41.2735 24.6822 40.3331 24.0523 39.6244 23.1582C38.9158 22.2641 38.4728 21.221 38.2275 20.1169C37.9481 18.8436 37.8459 17.5295 37.8459 16.229C37.8459 14.7524 37.9754 13.1878 38.4251 11.7789C38.7795 10.6749 39.311 9.62498 40.1219 8.79185C40.8783 8.01291 41.7914 7.47781 42.8271 7.16624C43.9583 6.8208 45.1439 6.6921 46.316 6.6921C48.6055 6.6921 51.011 7.15269 52.7281 8.7783C54.5203 10.4852 54.9359 13.2013 54.9359 15.5652V17.394H41.3484ZM51.4266 14.9218C51.3789 13.4655 51.1336 11.5893 50.1932 10.5326C49.2393 9.44887 47.6856 9.19825 46.316 9.19825C44.9599 9.19825 43.5222 9.48274 42.5886 10.5462C41.6483 11.6096 41.4098 13.4655 41.3552 14.9218H51.4266ZM58.4452 22.806C59.2561 22.9144 60.0806 23.016 60.8915 23.104C61.5321 23.1785 62.1726 23.2259 62.8131 23.2259H63.4877C63.9511 23.2259 64.4077 23.165 64.8642 23.0905C65.2254 23.0363 65.5797 22.9347 65.8932 22.7721C66.1521 22.6366 66.3429 22.4334 66.486 22.1761C66.6632 21.8306 66.704 21.3768 66.704 20.9975C66.704 20.6791 66.6291 20.354 66.5269 20.056C66.4042 19.7038 66.1521 19.4193 65.8523 19.1958C65.607 19.0129 65.348 18.8368 65.0959 18.6607C64.7484 18.4101 64.4008 18.1662 64.0465 17.9291C63.6308 17.6514 63.2152 17.3805 62.7927 17.1163C62.3498 16.8386 61.9205 16.5541 61.4844 16.2697C60.9869 15.9445 60.4963 15.6262 60.0261 15.274C59.6105 14.9624 59.2289 14.6102 58.9086 14.2038C58.6088 13.8109 58.3703 13.3774 58.2204 12.9033C58.05 12.3885 57.9887 11.8331 57.9887 11.2912V10.7629C57.9887 10.2143 58.1795 9.69948 58.4452 9.22535C58.7382 8.69025 59.1675 8.25675 59.665 7.91131C60.2578 7.49814 60.9529 7.21365 61.6479 7.024C62.5474 6.76661 63.5218 6.6921 64.4554 6.6921C64.9119 6.6921 65.3685 6.6921 65.825 6.70565C66.227 6.7192 66.6291 6.73274 67.0311 6.75984C67.44 6.78693 67.842 6.8208 68.2509 6.86821C68.7074 6.9224 69.164 6.97658 69.6205 7.04432L70.118 7.11205L69.5796 9.53015L69.1572 9.47596C68.4348 9.37436 67.7057 9.27953 66.9766 9.2118C66.3633 9.15761 65.7432 9.12375 65.1231 9.12375H64.4554C63.7535 9.12375 62.636 9.19148 62.0704 9.67239C61.7024 9.97042 61.3822 10.37 61.3822 10.8713V11.2912C61.3822 11.7857 61.4639 12.3479 61.7774 12.7475C62.1794 13.2487 62.8949 13.7161 63.4264 14.048C63.9307 14.3528 64.4213 14.6576 64.9119 14.9827C65.3616 15.274 65.8046 15.5652 66.2543 15.8565C66.6223 16.1003 66.997 16.3442 67.3582 16.5948C67.6171 16.7777 67.8761 16.9606 68.1282 17.157C68.8028 17.6921 69.4774 18.3626 69.7704 19.189C69.9612 19.7309 70.1316 20.3472 70.1316 20.923C70.1316 21.79 69.9612 22.6705 69.4433 23.3885C69.0004 23.9981 68.4417 24.4722 67.7602 24.7974C67.0924 25.1157 66.3838 25.3189 65.6478 25.4137C64.9732 25.5018 64.285 25.5966 63.5968 25.5966H62.929C62.1453 25.5966 61.3685 25.5492 60.5917 25.4679C59.7331 25.3799 58.8745 25.285 58.0228 25.1699L57.5321 25.1022L58.0159 22.7586L58.4452 22.806ZM77.5795 7.34912C78.1655 7.19333 78.772 7.06464 79.3716 6.94272C80.3801 6.74629 81.4091 6.65146 82.438 6.65146C83.7055 6.65146 85.0819 6.77338 86.288 7.20688C87.2625 7.56587 88.1347 8.12129 88.782 8.95441C89.443 9.80109 89.8314 10.8171 90.0495 11.8602C90.3084 13.1471 90.3902 14.495 90.3902 15.8091V25.4205H86.8877V15.8091C86.8877 14.7592 86.8468 13.6755 86.6901 12.6391C86.5879 11.9415 86.3902 11.2099 86.0155 10.6071C85.6952 10.1059 85.2659 9.75367 84.7208 9.53015C84.0121 9.23889 83.1603 9.16439 82.4039 9.16439C81.4363 9.16439 80.4687 9.25244 79.5147 9.44887C78.8606 9.59111 78.1928 9.74012 77.5454 9.92301V25.4544H74.152V0H77.5386L77.5795 7.34912ZM98.1311 7.34912C98.7239 7.19333 99.3304 7.06464 99.9232 6.94272C100.939 6.74629 101.967 6.65146 102.996 6.65146C104.264 6.65146 105.64 6.77338 106.84 7.20688C107.821 7.56587 108.686 8.12129 109.334 8.95441C110.001 9.80109 110.39 10.8171 110.601 11.8602C110.86 13.1471 110.942 14.495 110.942 15.8091V25.4205H107.446V15.8091C107.446 14.7592 107.405 13.6755 107.248 12.6391C107.139 11.9415 106.942 11.2099 106.567 10.6071C106.254 10.1059 105.818 9.75367 105.272 9.53015C104.571 9.23889 103.712 9.16439 102.956 9.16439C101.988 9.16439 101.02 9.25244 100.073 9.44887C99.4122 9.59111 98.7512 9.74012 98.097 9.92301V25.4544H94.7104V0H98.097L98.1311 7.34912ZM119.732 7.03754H124.052V9.55047H119.732V19.4532C119.732 20.1508 119.746 20.8552 119.807 21.5461C119.841 21.9187 119.902 22.3725 120.052 22.7179C120.127 22.894 120.236 23.0701 120.4 23.1582C120.604 23.2733 120.904 23.2937 121.136 23.2937H121.354C121.654 23.2937 121.96 23.2598 122.253 23.2124C122.662 23.1514 123.071 23.0566 123.48 22.9618L124.175 22.7857L123.691 25.4137L123.384 25.4815C122.908 25.5763 122.41 25.6711 121.919 25.7118C121.586 25.7456 121.245 25.7659 120.911 25.7659C120.168 25.7659 119.344 25.6982 118.649 25.4205C118.049 25.1767 117.558 24.7906 117.204 24.2419C116.822 23.6527 116.632 22.9414 116.536 22.2506C116.414 21.3294 116.386 20.3811 116.386 19.4532V9.55047H112.475V7.03754H116.386V2.5197H119.732V7.03754ZM138.096 13.9464V12.6527C138.096 11.7654 137.953 10.6681 137.245 10.0449C136.536 9.415 135.452 9.26599 134.533 9.26599C133.538 9.26599 132.536 9.3134 131.534 9.38791C130.43 9.46919 129.32 9.57079 128.223 9.68594L127.807 9.72658L127.228 7.16624L127.746 7.11205C128.89 6.9969 130.028 6.88853 131.166 6.7937C132.277 6.70565 133.388 6.65146 134.498 6.65146C136.291 6.65146 138.383 6.93594 139.766 8.19579C141.047 9.36082 141.483 11 141.483 12.6933V24.1403L141.156 24.2419C139.868 24.6483 138.546 24.9667 137.224 25.2512C135.555 25.6102 133.824 25.7321 132.12 25.7321C130.499 25.7321 128.89 25.3731 127.643 24.2894C126.396 23.1988 125.953 21.6681 125.953 20.0492C125.953 18.5455 126.403 17.1841 127.521 16.1477C128.788 14.9692 130.819 14.5763 132.488 14.4341L138.096 13.9464ZM138.09 16.4525L132.829 16.8996C131.97 16.9741 130.744 17.1773 130.131 17.8546C129.585 18.4575 129.415 19.25 129.415 20.0492C129.415 20.8823 129.585 21.7426 130.158 22.386C130.689 22.9821 131.405 23.2124 132.195 23.2259C133.354 23.2395 134.512 23.1311 135.643 22.9211C136.447 22.7721 137.265 22.6096 138.055 22.4199L138.09 16.4525ZM145.694 22.806C146.512 22.9144 147.323 23.016 148.147 23.104C148.781 23.1785 149.422 23.2259 150.069 23.2259H150.737C151.2 23.2259 151.657 23.165 152.12 23.0905C152.474 23.0363 152.829 22.9347 153.149 22.7721C153.408 22.6366 153.599 22.4334 153.735 22.1761C153.919 21.8306 153.96 21.3768 153.96 20.9975C153.96 20.6791 153.878 20.354 153.783 20.056C153.66 19.7038 153.401 19.4193 153.108 19.1958C152.856 19.0129 152.597 18.8368 152.345 18.6607C152.004 18.4101 151.65 18.1662 151.295 17.9291C150.88 17.6514 150.464 17.3805 150.042 17.1163C149.605 16.8386 149.169 16.5541 148.733 16.2697C148.243 15.9445 147.752 15.6262 147.275 15.274C146.866 14.9624 146.485 14.6102 146.164 14.2038C145.858 13.8109 145.626 13.3774 145.476 12.9033C145.306 12.3885 145.244 11.8331 145.244 11.2912V10.7629C145.244 10.2143 145.435 9.69948 145.694 9.22535C145.987 8.69025 146.416 8.25675 146.914 7.91131C147.507 7.49814 148.202 7.21365 148.897 7.024C149.796 6.76661 150.771 6.6921 151.704 6.6921C152.161 6.6921 152.617 6.6921 153.074 6.70565C153.476 6.7192 153.878 6.73274 154.287 6.75984C154.689 6.78693 155.098 6.8208 155.5 6.86821C155.956 6.9224 156.413 6.97658 156.869 7.04432L157.367 7.11205L156.829 9.53015L156.406 9.47596C155.684 9.37436 154.955 9.27953 154.232 9.2118C153.612 9.15761 152.992 9.12375 152.372 9.12375H151.704C151.002 9.12375 149.892 9.19148 149.319 9.67239C148.951 9.97042 148.631 10.37 148.631 10.8713V11.2912C148.631 11.7857 148.713 12.3479 149.033 12.7475C149.428 13.2487 150.144 13.7161 150.682 14.048C151.18 14.3528 151.67 14.6576 152.161 14.9827C152.611 15.274 153.06 15.5652 153.503 15.8565C153.871 16.1003 154.246 16.3442 154.614 16.5948C154.873 16.7777 155.132 16.9606 155.377 17.157C156.059 17.6921 156.726 18.3626 157.019 19.189C157.21 19.7309 157.38 20.3472 157.38 20.923C157.38 21.79 157.217 22.6705 156.699 23.3885C156.256 23.9981 155.691 24.4722 155.016 24.7974C154.348 25.1157 153.64 25.3189 152.904 25.4137C152.222 25.5018 151.534 25.5966 150.846 25.5966H150.178C149.401 25.5966 148.617 25.5492 147.841 25.4679C146.989 25.3799 146.13 25.285 145.278 25.1699L144.781 25.1022L145.265 22.7586L145.694 22.806ZM166.559 25.4544H165.646L158.743 7.00368H162.307L167.868 22.1422L173.503 7.00368H177.067L167.888 31.1982H164.365L166.559 25.4544ZM190.566 13.9464V12.6527C190.566 11.7654 190.423 10.6681 189.714 10.0449C189.005 9.415 187.922 9.26599 187.009 9.26599C186.007 9.26599 185.005 9.3134 184.01 9.38791C182.9 9.46919 181.789 9.57079 180.685 9.68594L180.276 9.72658L179.697 7.16624L180.222 7.11205C181.353 6.9969 182.498 6.88853 183.636 6.7937C184.746 6.70565 185.857 6.65146 186.968 6.65146C188.76 6.65146 190.852 6.93594 192.235 8.19579C193.516 9.36082 193.952 11 193.952 12.6933V24.1403L193.625 24.2419C192.337 24.6483 191.015 24.9667 189.693 25.2512C188.024 25.6102 186.293 25.7321 184.59 25.7321C182.968 25.7321 181.36 25.3731 180.113 24.2894C178.866 23.1988 178.423 21.6681 178.423 20.0492C178.423 18.5455 178.872 17.1841 179.99 16.1477C181.257 14.9692 183.295 14.5763 184.958 14.4341L190.566 13.9464ZM190.566 16.4525L185.298 16.8996C184.44 16.9741 183.213 17.1773 182.6 17.8546C182.055 18.4575 181.884 19.25 181.884 20.0492C181.884 20.8823 182.055 21.7426 182.627 22.386C183.159 22.9821 183.874 23.2124 184.665 23.2259C185.823 23.2395 186.981 23.1311 188.113 22.9211C188.923 22.7721 189.734 22.6096 190.532 22.4199L190.566 16.4525Z" fill="#727271"/>
<path d="M0 36.2347C0 36.7359 0.408852 37.1288 0.913102 37.1288C1.41735 37.1288 1.83302 36.7359 1.83302 36.2347C1.83302 35.7199 1.43098 35.3203 0.913102 35.3203C0.408852 35.3203 0 35.7199 0 36.2347ZM1.57408 38.5444H0.265754V45.2501H1.57408V38.5444ZM7.7273 38.3412C6.31676 38.3412 5.06295 38.4564 3.95223 38.6731V45.2501H5.26737V39.7027C6.05782 39.5875 6.79375 39.5333 7.45473 39.5333C8.53818 39.5333 9.19916 40.2378 9.19916 41.3689V45.2501H10.5143V41.0099C10.5143 39.364 9.44447 38.3412 7.7273 38.3412ZM12.1701 44.8369C13.165 45.2501 14.1735 45.4668 15.182 45.4668C16.9265 45.4668 18.0508 44.7217 18.0508 43.3332C18.0508 42.7304 17.8532 42.2969 17.4443 42.0259C17.0423 41.755 16.3949 41.5382 15.4887 41.3554L15.3251 41.3215C14.2621 41.0844 13.7579 40.9693 13.6965 40.3529C13.6965 39.7365 14.1599 39.4182 15.1003 39.4182C15.7749 39.4182 16.5994 39.5604 17.5329 39.8652L17.8532 38.8289C17.0014 38.5173 16.1088 38.3615 15.1684 38.3615C13.4376 38.3615 12.4018 39.1202 12.4018 40.4342C12.4018 41.5112 13.1105 42.0395 14.6641 42.3443C15.3864 42.5001 15.8157 42.6017 15.9657 42.6423C16.538 42.8184 16.8242 43.0894 16.8242 43.4483C16.8242 44.0309 16.1905 44.3763 15.257 44.3763C14.4052 44.3763 13.4853 44.1595 12.4563 43.7464L12.1701 44.8369ZM23.4749 38.3412C22.2892 38.3412 21.0967 38.4564 19.8974 38.6731V48.5216H21.2126V45.1688C21.8872 45.2636 22.6776 45.3246 23.5635 45.3246C24.5584 45.3246 25.3488 45.0062 25.9553 44.3627C26.5754 43.7193 26.8752 42.8862 26.8752 41.8701C26.8616 40.7932 26.5413 39.933 25.9416 39.303C25.3488 38.6596 24.5243 38.3412 23.4749 38.3412ZM23.3863 44.207C22.5822 44.207 21.8599 44.146 21.2126 44.0309V39.6078C21.9485 39.5062 22.6504 39.4453 23.2977 39.4453C24.7969 39.4453 25.5669 40.4206 25.5669 41.9108C25.5669 42.5746 25.3624 43.1164 24.9604 43.5635C24.572 43.9902 24.0337 44.207 23.3863 44.207ZM28.5038 36.2347C28.5038 36.7359 28.9058 37.1288 29.4169 37.1288C29.9211 37.1288 30.3368 36.7359 30.3368 36.2347C30.3368 35.7199 29.9348 35.3203 29.4169 35.3203C28.9058 35.3203 28.5038 35.7199 28.5038 36.2347ZM30.0779 38.5444H28.7627V45.2501H30.0779V38.5444ZM36.4082 38.3615C35.2089 38.3615 33.8802 38.4902 32.456 38.7476V45.2501H33.7643V39.7772C34.473 39.7027 35.352 39.662 36.4082 39.662V38.3615ZM37.8733 36.2347C37.8733 36.7359 38.2821 37.1288 38.7864 37.1288C39.2906 37.1288 39.7063 36.7359 39.7063 36.2347C39.7063 35.7199 39.3043 35.3203 38.7864 35.3203C38.2821 35.3203 37.8733 35.7199 37.8733 36.2347ZM39.4474 38.5444H38.139V45.2501H39.4474V38.5444ZM45.6006 38.3412C44.19 38.3412 42.9362 38.4564 41.8255 38.6731V45.2501H43.1407V39.7027C43.9311 39.5875 44.667 39.5333 45.328 39.5333C46.4115 39.5333 47.0724 40.2378 47.0724 41.3689V45.2501H48.3876V41.0099C48.3876 39.364 47.3178 38.3412 45.6006 38.3412ZM53.505 38.3412C52.4488 38.3412 51.6175 38.6596 51.0111 39.303C50.4046 39.9465 50.1048 40.7932 50.1048 41.8701C50.1048 42.8862 50.4046 43.7193 51.0111 44.3627C51.6311 45.0062 52.4216 45.3246 53.4165 45.3246C54.2955 45.3246 55.0723 45.2636 55.7537 45.1688C55.7401 46.7267 54.7997 47.6614 53.287 47.6614C52.7827 47.6614 52.0468 47.5327 51.0792 47.2889L50.8543 48.3726C51.7334 48.6774 52.5511 48.8332 53.3279 48.8332C55.7128 48.8332 57.0825 47.3566 57.0825 45.1078V38.6731L56.5782 38.5986C56.2989 38.558 56.1013 38.5173 55.9582 38.5038C55.4812 38.4428 54.4863 38.3412 53.505 38.3412ZM53.6754 39.4453C54.3432 39.4453 55.0314 39.5062 55.7537 39.6078V44.0309C55.12 44.146 54.3977 44.207 53.5936 44.207C52.9395 44.207 52.408 43.9902 52.0059 43.5635C51.6039 43.1164 51.3995 42.5746 51.3995 41.9108C51.3995 40.4206 52.1763 39.4453 53.6754 39.4453ZM62.6565 36.2347C62.6565 36.7359 63.0654 37.1288 63.5696 37.1288C64.0739 37.1288 64.4895 36.7359 64.4895 36.2347C64.4895 35.7199 64.0875 35.3203 63.5696 35.3203C63.0654 35.3203 62.6565 35.7199 62.6565 36.2347ZM64.2306 38.5444H62.9154V45.2501H64.2306V38.5444ZM70.3838 38.3412C68.9733 38.3412 67.7195 38.4564 66.6087 38.6731V45.2501H67.9239V39.7027C68.7143 39.5875 69.4503 39.5333 70.1112 39.5333C71.1947 39.5333 71.8557 40.2378 71.8557 41.3689V45.2501H73.1708V41.0099C73.1708 39.364 72.101 38.3412 70.3838 38.3412ZM79.2218 38.3412C77.8113 38.3412 76.5575 38.4564 75.4467 38.6731V45.2501H76.7551V39.7027C77.5523 39.5875 78.2883 39.5333 78.9492 39.5333C80.0327 39.5333 80.6937 40.2378 80.6937 41.3689V45.2501H82.0088V41.0099C82.0088 39.364 80.939 38.3412 79.2218 38.3412ZM91.1739 41.8566C91.1739 40.7796 90.8264 39.9194 90.1382 39.2624C89.4567 38.5986 88.5641 38.2735 87.4534 38.2735C86.3426 38.2735 85.45 38.5986 84.7617 39.2624C84.0667 39.9194 83.7192 40.7796 83.7192 41.8566C83.7192 42.9471 84.0667 43.8209 84.7617 44.4914C85.45 45.1688 86.3426 45.4939 87.4534 45.4939C88.5641 45.4939 89.4567 45.1688 90.1382 44.4914C90.8264 43.8209 91.1739 42.9471 91.1739 41.8566ZM89.8315 41.8566C89.8315 43.2993 88.8843 44.2882 87.4534 44.2882C86.7515 44.2882 86.1723 44.0647 85.7226 43.6177C85.2796 43.1706 85.0616 42.5881 85.0616 41.8566C85.0616 40.4206 86.0292 39.4791 87.4534 39.4791C88.8843 39.4791 89.8315 40.4206 89.8315 41.8566ZM96.2096 45.2501L99.2624 38.5444H97.8041L95.5009 43.6922L93.1773 38.5444H91.7259L94.7922 45.2501H96.2096ZM103.215 38.3412C102.158 38.3412 101.327 38.6596 100.721 39.303C100.128 39.9465 99.8279 40.7932 99.8143 41.8701C99.8143 42.9471 100.114 43.8209 100.721 44.4779C101.327 45.1349 102.131 45.4668 103.126 45.4668C103.916 45.4668 104.7 45.2094 105.463 44.7082V45.2501H106.792V38.6731C105.436 38.4564 104.237 38.3412 103.215 38.3412ZM103.385 39.4453C104.053 39.4453 104.741 39.5062 105.463 39.6078V43.577C104.741 44.0918 104.019 44.3492 103.303 44.3492C101.974 44.3492 101.109 43.3603 101.109 41.9108C101.109 40.4206 101.886 39.4453 103.385 39.4453ZM113.668 44.1799C113.177 44.2476 112.754 44.2882 112.414 44.2882C111.473 44.2882 111.099 43.787 111.099 42.7371V39.723H113.409V38.5444H111.099V35.8622H109.77V38.5444H108.271V39.723H109.77V42.8658C109.77 44.6066 110.567 45.4668 112.168 45.4668C112.673 45.4668 113.218 45.3923 113.811 45.2636L113.668 44.1799ZM115.18 36.2347C115.18 36.7359 115.582 37.1288 116.087 37.1288C116.591 37.1288 117.013 36.7359 117.013 36.2347C117.013 35.7199 116.604 35.3203 116.087 35.3203C115.582 35.3203 115.18 35.7199 115.18 36.2347ZM116.748 38.5444H115.439V45.2501H116.748V38.5444ZM122.574 45.2501L125.633 38.5444H124.175L121.872 43.6922L119.548 38.5444H118.09L121.163 45.2501H122.574ZM129.695 38.3277C128.672 38.3277 127.834 38.6596 127.173 39.3166C126.512 39.96 126.178 40.8203 126.178 41.8837C126.178 42.9471 126.512 43.8073 127.16 44.4779C127.821 45.1349 128.747 45.4668 129.926 45.4668C130.676 45.4668 131.568 45.311 132.611 44.9791L132.407 43.9157C131.323 44.1595 130.519 44.2882 129.974 44.2882C128.659 44.2882 127.807 43.5635 127.596 42.3985H132.897C132.938 42.053 132.972 41.7279 132.972 41.396C132.959 40.4681 132.652 39.7365 132.045 39.1743C131.439 38.6189 130.662 38.3277 129.695 38.3277ZM127.548 41.3825C127.705 40.1633 128.516 39.3775 129.729 39.3775C130.935 39.3775 131.759 40.1633 131.773 41.3825H127.548ZM138.192 36.2347C138.192 36.7359 138.594 37.1288 139.098 37.1288C139.602 37.1288 140.018 36.7359 140.018 36.2347C140.018 35.7199 139.616 35.3203 139.098 35.3203C138.594 35.3203 138.192 35.7199 138.192 36.2347ZM139.759 38.5444H138.451V45.2501H139.759V38.5444ZM145.919 38.3412C144.502 38.3412 143.248 38.4564 142.137 38.6731V45.2501H143.452V39.7027C144.243 39.5875 144.979 39.5333 145.64 39.5333C146.723 39.5333 147.384 40.2378 147.384 41.3689V45.2501H148.699V41.0099C148.699 39.364 147.63 38.3412 145.919 38.3412ZM155.37 44.1799C154.887 44.2476 154.464 44.2882 154.117 44.2882C153.183 44.2882 152.808 43.787 152.808 42.7371V39.723H155.111V38.5444H152.808V35.8622H151.48V38.5444H149.98V39.723H151.48V42.8658C151.48 44.6066 152.277 45.4668 153.871 45.4668C154.376 45.4668 154.928 45.3923 155.52 45.2636L155.37 44.1799ZM160.031 38.3277C159.009 38.3277 158.171 38.6596 157.51 39.3166C156.842 39.96 156.515 40.8203 156.515 41.8837C156.515 42.9471 156.842 43.8073 157.49 44.4779C158.157 45.1349 159.077 45.4668 160.263 45.4668C161.013 45.4668 161.905 45.311 162.941 44.9791L162.743 43.9157C161.66 44.1595 160.849 44.2882 160.304 44.2882C158.996 44.2882 158.144 43.5635 157.926 42.3985H163.234C163.275 42.053 163.302 41.7279 163.302 41.396C163.289 40.4681 162.989 39.7365 162.382 39.1743C161.776 38.6189 160.999 38.3277 160.031 38.3277ZM157.885 41.3825C158.042 40.1633 158.846 39.3775 160.059 39.3775C161.272 39.3775 162.089 40.1633 162.11 41.3825H157.885ZM169.087 38.3615C167.888 38.3615 166.559 38.4902 165.135 38.7476V45.2501H166.443V39.7772C167.152 39.7027 168.031 39.662 169.087 39.662V38.3615ZM170.552 36.2347C170.552 36.7359 170.961 37.1288 171.466 37.1288C171.97 37.1288 172.385 36.7359 172.385 36.2347C172.385 35.7199 171.983 35.3203 171.466 35.3203C170.961 35.3203 170.552 35.7199 170.552 36.2347ZM172.127 38.5444H170.811V45.2501H172.127V38.5444ZM181.394 41.8566C181.394 40.7796 181.053 39.9194 180.358 39.2624C179.683 38.5986 178.784 38.2735 177.673 38.2735C176.569 38.2735 175.67 38.5986 174.982 39.2624C174.287 39.9194 173.946 40.7796 173.946 41.8566C173.946 42.9471 174.287 43.8209 174.982 44.4914C175.67 45.1688 176.569 45.4939 177.673 45.4939C178.784 45.4939 179.683 45.1688 180.358 44.4914C181.053 43.8209 181.394 42.9471 181.394 41.8566ZM180.058 41.8566C180.058 43.2993 179.104 44.2882 177.673 44.2882C176.971 44.2882 176.392 44.0647 175.949 43.6177C175.5 43.1706 175.281 42.5881 175.281 41.8566C175.281 40.4206 176.249 39.4791 177.673 39.4791C179.104 39.4791 180.058 40.4206 180.058 41.8566ZM187.179 38.3615C185.98 38.3615 184.651 38.4902 183.227 38.7476V45.2501H184.542V39.7772C185.244 39.7027 186.123 39.662 187.179 39.662V38.3615ZM188.113 44.8369C189.107 45.2501 190.116 45.4668 191.124 45.4668C192.869 45.4668 193.993 44.7217 193.993 43.3332C193.993 42.7304 193.796 42.2969 193.394 42.0259C192.985 41.755 192.337 41.5382 191.431 41.3554L191.274 41.3215C190.205 41.0844 189.7 40.9693 189.646 40.3529C189.646 39.7365 190.102 39.4182 191.043 39.4182C191.717 39.4182 192.542 39.5604 193.475 39.8652L193.796 38.8289C192.944 38.5173 192.051 38.3615 191.111 38.3615C189.38 38.3615 188.344 39.1202 188.344 40.4342C188.344 41.5112 189.053 42.0395 190.607 42.3443C191.329 42.5001 191.765 42.6017 191.908 42.6423C192.481 42.8184 192.774 43.0894 192.774 43.4483C192.774 44.0309 192.14 44.3763 191.199 44.3763C190.348 44.3763 189.428 44.1595 188.406 43.7464L188.113 44.8369Z" fill="#727271"/>
</svg>
