<svg width="81" height="81" viewBox="0 0 81 81" fill="none" xmlns="http://www.w3.org/2000/svg">
<rect width="81" height="81" rx="12" fill="#FFECCC"/>
<circle cx="61.8408" cy="22.8109" r="3.89318" fill="#243970"/>
<path fill-rule="evenodd" clip-rule="evenodd" d="M43.6042 27.5237C42.6989 27.5237 41.965 28.2576 41.965 29.1629C41.965 30.0682 42.6989 30.8021 43.6042 30.8021H64.1005L64.1005 30.8022H65.324V32.8513H67.7828V34.4846L67.7829 34.4846L67.7829 45.5553C67.7829 46.4606 68.5168 47.1945 69.4221 47.1945C70.3274 47.1945 71.0613 46.4606 71.0613 45.5553V30.8022C71.0613 30.6502 71.0407 30.503 71.0019 30.3634C70.7 28.7471 69.2818 27.5238 67.5779 27.5238C67.4548 27.5238 67.3331 27.5301 67.2132 27.5426C67.1317 27.5301 67.0482 27.5237 66.9633 27.5237H43.6042Z" fill="#243970"/>
<rect x="57.1279" y="30.3923" width="9.42559" height="15.5727" fill="#243970"/>
<rect x="57.1279" y="41.8669" width="4.09808" height="24.1787" rx="2.04904" fill="#243970"/>
<rect x="62.4554" y="41.8669" width="4.09808" height="24.1787" rx="2.04904" fill="#243970"/>
<path fill-rule="evenodd" clip-rule="evenodd" d="M10 20.1471C10 16.7522 12.7522 14 16.1471 14H55.8985C58.4205 14 60.586 15.5186 61.5339 17.6882H58.0672C57.4888 17.1776 56.7295 16.8687 55.8985 16.8687H16.1471C14.3365 16.8687 12.8687 18.3365 12.8687 20.1471V48.4239C12.8687 50.2345 14.3365 51.7023 16.1471 51.7023H55.0788V54.571H41.5397L50.973 64.0042C51.6131 64.6444 51.6131 65.6823 50.973 66.3225C50.3328 66.9626 49.2949 66.9626 48.6548 66.3225L39.0963 56.764V65.6359C39.0963 66.5412 38.3624 67.2751 37.4571 67.2751C36.5518 67.2751 35.8179 66.5412 35.8179 65.6359V57.0141L26.5095 66.3225C25.8694 66.9626 24.8315 66.9626 24.1913 66.3225C23.5511 65.6823 23.5511 64.6444 24.1913 64.0042L33.6245 54.571H16.1471C12.7522 54.571 10 51.8188 10 48.4239V20.1471Z" fill="#243970"/>
<path fill-rule="evenodd" clip-rule="evenodd" d="M19.0157 23.016V34.0808H24.753V23.016H19.0157ZM18.1961 20.5571C17.2908 20.5571 16.5569 21.291 16.5569 22.1964V34.9004C16.5569 35.8057 17.2908 36.5396 18.1961 36.5396H25.5727C26.478 36.5396 27.2119 35.8057 27.2119 34.9004V22.1964C27.2119 21.291 26.478 20.5571 25.5727 20.5571H18.1961Z" fill="#243970"/>
<path fill-rule="evenodd" clip-rule="evenodd" d="M24.3432 25.4747V31.212H30.0806V25.4747H24.3432ZM23.5236 23.0159C22.6183 23.0159 21.8844 23.7498 21.8844 24.6551V32.0316C21.8844 32.937 22.6183 33.6709 23.5236 33.6709H30.9002C31.8055 33.6709 32.5394 32.937 32.5394 32.0316V24.6551C32.5394 23.7498 31.8055 23.0159 30.9002 23.0159H23.5236Z" fill="#243970"/>
<path fill-rule="evenodd" clip-rule="evenodd" d="M42.7847 36.9491L35.8179 36.9491L35.8179 44.3256L42.7847 44.3256L42.7847 36.9491ZM45.2435 36.1295C45.2435 35.2241 44.5096 34.4902 43.6043 34.4902L34.9983 34.4902C34.093 34.4902 33.3591 35.2241 33.3591 36.1295L33.3591 45.1452C33.3591 46.0506 34.093 46.7845 34.9983 46.7845L43.6043 46.7845C44.5096 46.7845 45.2435 46.0506 45.2435 45.1452L45.2435 36.1295Z" fill="#243970"/>
<path fill-rule="evenodd" clip-rule="evenodd" d="M37.0474 29.9825L25.9826 29.9825L25.9826 38.5885L37.0474 38.5885L37.0474 29.9825ZM39.5062 29.1629C39.5062 28.2576 38.7723 27.5237 37.867 27.5237L25.1629 27.5237C24.2576 27.5237 23.5237 28.2576 23.5237 29.1629L23.5237 39.4081C23.5237 40.3134 24.2576 41.0473 25.1629 41.0473L37.867 41.0473C38.7723 41.0473 39.5062 40.3134 39.5062 39.4081L39.5062 29.1629Z" fill="#243970"/>
</svg>
