<svg width="96" height="138" viewBox="0 0 96 138" fill="none" xmlns="http://www.w3.org/2000/svg">
<path d="M80.3556 9.66301H62.0007V6.54448C62.0007 2.92988 59.0685 0 55.4539 0H40.5484C36.9314 0 34.0039 2.92988 34.0039 6.54448V9.66301H15.6491C7.3229 9.66301 0.547852 16.4381 0.547852 24.7619V122.906C0.547852 131.227 7.3229 138 15.6491 138H80.3532C88.6771 138 95.4521 131.227 95.4521 122.906V24.7619C95.4568 16.4381 88.6864 9.66301 80.3556 9.66301ZM48.0035 2.95317C49.8061 2.95317 51.2687 4.41578 51.2687 6.21842C51.2687 8.01873 49.8061 9.48134 48.0035 9.48134C46.2008 9.48134 44.7406 8.01873 44.7406 6.21842C44.7382 4.41578 46.1985 2.95317 48.0035 2.95317ZM30.3357 18.9371H65.6736V32.7271H30.3357V18.9371ZM80.3602 129.371H15.6514C12.081 129.371 9.17678 126.469 9.17678 122.906V24.7619C9.17678 21.1939 12.081 18.2896 15.6514 18.2896H21.8232V33.7076C21.8232 37.8578 25.1979 41.2325 29.3505 41.2325H66.6564C70.8067 41.2325 74.1814 37.8578 74.1814 33.7076V18.2896H80.3556C83.9213 18.2896 86.8232 21.1939 86.8232 24.7619V122.906H86.8279C86.8302 126.469 83.9282 129.371 80.3602 129.371Z" fill="#F38517"/>
<path d="M79.6965 62.8665H44.8291C43.6343 62.8665 42.6701 63.8284 42.6701 65.0208C42.6701 66.2179 43.6343 67.1798 44.8291 67.1798H79.6988C80.8936 67.1798 81.8578 66.2179 81.8578 65.0208C81.8554 63.8284 80.8912 62.8665 79.6965 62.8665Z" fill="#283E77"/>
<path d="M79.6965 86.3266H44.8291C43.6343 86.3266 42.6701 87.2885 42.6701 88.4809C42.6701 89.678 43.6343 90.6399 44.8291 90.6399H79.6988C80.8936 90.6399 81.8578 89.678 81.8578 88.4809C81.8554 87.2885 80.8912 86.3266 79.6965 86.3266Z" fill="#283E77"/>
<path d="M79.6965 109.787H44.8291C43.6343 109.787 42.6701 110.748 42.6701 111.941C42.6701 113.138 43.6343 114.1 44.8291 114.1H79.6988C80.8936 114.1 81.8578 113.138 81.8578 111.941C81.8554 110.748 80.8912 109.787 79.6965 109.787Z" fill="#283E77"/>
<path fill-rule="evenodd" clip-rule="evenodd" d="M30.2325 57.7875H17.1225L17.1225 70.8975H30.2325V57.7875ZM17.1225 55.3725C15.7887 55.3725 14.7075 56.4537 14.7075 57.7875V70.8975C14.7075 72.2313 15.7887 73.3125 17.1225 73.3125H30.2325C31.5662 73.3125 32.6475 72.2313 32.6475 70.8975V57.7875C32.6475 56.4537 31.5662 55.3725 30.2325 55.3725H17.1225Z" fill="#FAAD0F"/>
<path fill-rule="evenodd" clip-rule="evenodd" d="M30.2325 81.2475H17.1225L17.1225 94.3575H30.2325V81.2475ZM17.1225 78.8325C15.7887 78.8325 14.7075 79.9138 14.7075 81.2475V94.3575C14.7075 95.6913 15.7887 96.7725 17.1225 96.7725H30.2325C31.5662 96.7725 32.6475 95.6913 32.6475 94.3575V81.2475C32.6475 79.9138 31.5662 78.8325 30.2325 78.8325H17.1225Z" fill="#FAAD0F"/>
<path fill-rule="evenodd" clip-rule="evenodd" d="M30.2325 104.708H17.1225L17.1225 117.818H30.2325V104.708ZM17.1225 102.293C15.7887 102.293 14.7075 103.374 14.7075 104.708V117.818C14.7075 119.151 15.7887 120.233 17.1225 120.233H30.2325C31.5662 120.233 32.6475 119.151 32.6475 117.818V104.708C32.6475 103.374 31.5662 102.293 30.2325 102.293H17.1225Z" fill="#FAAD0F"/>
<path fill-rule="evenodd" clip-rule="evenodd" d="M36.5364 55.5237C37.4056 56.3377 37.4503 57.7022 36.6363 58.5715L24.9779 71.0203L18.6599 65.0469C17.7945 64.2287 17.7563 62.864 18.5744 61.9987C19.3925 61.1333 20.7573 61.0951 21.6226 61.9132L24.7921 64.9098L33.4886 55.6236C34.3027 54.7544 35.6672 54.7097 36.5364 55.5237Z" fill="#DC732E"/>
<path fill-rule="evenodd" clip-rule="evenodd" d="M36.5364 78.9837C37.4056 79.7977 37.4503 81.1623 36.6363 82.0315L24.9779 94.4803L18.6599 88.5069C17.7945 87.6888 17.7563 86.324 18.5744 85.4587C19.3925 84.5934 20.7573 84.5551 21.6226 85.3732L24.7921 88.3698L33.4886 79.0836C34.3027 78.2144 35.6672 78.1697 36.5364 78.9837Z" fill="#DC732E"/>
<path fill-rule="evenodd" clip-rule="evenodd" d="M36.5364 102.444C37.4056 103.258 37.4503 104.622 36.6363 105.491L24.9779 117.94L18.6599 111.967C17.7945 111.149 17.7563 109.784 18.5744 108.919C19.3925 108.053 20.7573 108.015 21.6226 108.833L24.7921 111.83L33.4886 102.544C34.3027 101.674 35.6672 101.63 36.5364 102.444Z" fill="#DC732E"/>
<path fill-rule="evenodd" clip-rule="evenodd" d="M48 138H80.3532C88.677 138 95.4521 131.227 95.4521 122.906V24.7619C95.4567 16.4381 88.6864 9.663 80.3555 9.663H62.0007V6.54448C62.0007 2.92988 59.0685 0 55.4539 0H48V2.95317C48.0011 2.95317 48.0023 2.95317 48.0034 2.95317C49.8061 2.95317 51.2687 4.41578 51.2687 6.21842C51.2687 8.01873 49.8061 9.48134 48.0034 9.48134C48.0023 9.48134 48.0011 9.48134 48 9.48134V18.9371H65.6735V32.7271H48V41.2326H66.6564C70.8067 41.2326 74.1814 37.8578 74.1814 33.7076V18.2896H80.3555C83.9212 18.2896 86.8232 21.1939 86.8232 24.7619V122.906H86.8278C86.8301 126.469 83.9282 129.371 80.3602 129.371H48V138Z" fill="#F3B517"/>
</svg>
