<svg width="81" height="81" viewBox="0 0 81 81" fill="none" xmlns="http://www.w3.org/2000/svg">
<rect width="81" height="81" rx="12" fill="#FFECCC"/>
<path fill-rule="evenodd" clip-rule="evenodd" d="M61.375 17.25C64.8958 17.25 67.75 20.1042 67.75 23.625V37.068C67.75 40.0759 65.6658 42.5997 62.8614 43.269L61.9975 43.4752V52.6759L52.9613 43.443H45.7732V35.1751C45.7732 30.4117 41.9116 26.5501 37.1482 26.5501H31.9695V23.625C31.9695 20.1042 34.8237 17.25 38.3445 17.25H61.375ZM29.7195 26.5501V23.625C29.7195 18.8615 33.5811 15 38.3445 15H61.375C66.1385 15 70 18.8615 70 23.625V37.068C70 40.8253 67.5984 44.0193 64.2475 45.2027V58.1916L52.0151 45.693H45.7618C45.5298 50.2492 41.7621 53.8721 37.1482 53.8721H26.0428L15.0707 65.083V53.1077C12.0815 51.7539 10 48.7448 10 45.2471V35.1751C10 30.4117 13.8615 26.5501 18.625 26.5501H29.7195ZM12.25 35.1751C12.25 31.6543 15.1042 28.8001 18.625 28.8001H37.1482C40.669 28.8001 43.5232 31.6543 43.5232 35.1751V45.2471C43.5232 48.7679 40.669 51.6221 37.1482 51.6221H25.0966L17.3207 59.5672V51.5408L16.5599 51.2805C14.0512 50.4221 12.25 48.0434 12.25 45.2471V35.1751Z" fill="#243970"/>
</svg>
