<svg width="81" height="81" viewBox="0 0 81 81" fill="none" xmlns="http://www.w3.org/2000/svg">
<rect width="81" height="81" rx="12" fill="#FFECCC"/>
<path fill-rule="evenodd" clip-rule="evenodd" d="M71.5294 36.7102V71.0001H37.3193L49.0623 58.6064L51.0483 60.488L43.6804 68.2642H68.7936V43.2308L53.8007 57.9526L51.8839 56.0005L71.5294 36.7102Z" fill="#243970"/>
<path fill-rule="evenodd" clip-rule="evenodd" d="M65.7031 50.5615V64.6438H50.8385L65.7031 50.5615ZM57.7043 61.9079H62.9673V56.922L57.7043 61.9079Z" fill="#243970"/>
<path fill-rule="evenodd" clip-rule="evenodd" d="M70.6912 51.4018H68.0428V48.666H70.6912V51.4018Z" fill="#243970"/>
<path fill-rule="evenodd" clip-rule="evenodd" d="M70.6912 56.1692H68.0428V53.4333H70.6912V56.1692Z" fill="#243970"/>
<path fill-rule="evenodd" clip-rule="evenodd" d="M70.6912 60.4065H68.0428V57.6707H70.6912V60.4065Z" fill="#243970"/>
<path fill-rule="evenodd" clip-rule="evenodd" d="M70.6912 64.6435H68.0428V61.9077H70.6912V64.6435Z" fill="#243970"/>
<path fill-rule="evenodd" clip-rule="evenodd" d="M56.9198 22.1824H67.8218V43.1482H65.086V24.9182H56.9198V22.1824Z" fill="#243970"/>
<path fill-rule="evenodd" clip-rule="evenodd" d="M15.9021 15.6526C14.1635 16.3354 12.7358 18.2377 12.7358 20.3894V55.6402C12.7358 58.0644 13.084 59.7488 13.8201 60.8106C14.4771 61.7584 15.61 62.4377 17.8602 62.4377H45.7966V65.1735H17.8602C14.9952 65.1735 12.882 64.2595 11.5717 62.3693C10.3404 60.5931 10 58.1949 10 55.6402V20.3894C10 16.3964 13.2628 12.6484 17.27 12.6484H18.6379V42.0975H15.9021V15.6526Z" fill="#243970"/>
<path fill-rule="evenodd" clip-rule="evenodd" d="M15.8264 50.393V44.7373H18.5622V52.7951L17.2906 52.8848C16.6331 52.9312 15.4672 53.3163 14.4775 54.2241C13.5328 55.0906 12.7358 56.4433 12.7358 58.5088H10C10 55.6412 11.1452 53.5682 12.6282 52.2079C13.6311 51.288 14.7845 50.6971 15.8264 50.393Z" fill="#243970"/>
<path fill-rule="evenodd" clip-rule="evenodd" d="M17.1943 22.1824H45.7967V24.9182H17.1943V22.1824Z" fill="#243970"/>
<path fill-rule="evenodd" clip-rule="evenodd" d="M51.623 47.1643H25.6691V44.4285H51.623V47.1643Z" fill="#243970"/>
<path fill-rule="evenodd" clip-rule="evenodd" d="M59.2962 12.7365C59.1389 12.7295 59.0052 12.7747 58.8669 12.9109L40.4663 31.0224L38.5472 29.0726L56.9477 10.9611C57.6095 10.3097 58.4757 9.96125 59.4185 10.0034C60.3352 10.0444 61.209 10.4469 61.9749 11.0752C63.2226 12.0986 63.857 12.7229 64.6671 13.5203C65.8977 14.7316 66.1188 16.6003 64.8671 17.8324L39.0896 43.205L27.6086 48.3172L31.7103 36.2055L36.5266 31.2587L38.4868 33.1672L34.1028 37.67L32.2043 43.2761L37.5238 40.9074L62.9479 15.8827C62.965 15.8658 62.9686 15.8579 62.967 15.8318C62.9651 15.7998 62.9439 15.663 62.7479 15.4701C61.9579 14.6925 61.3922 14.1357 60.2399 13.1905C59.8058 12.8344 59.4795 12.7447 59.2962 12.7365Z" fill="#243970"/>
<path fill-rule="evenodd" clip-rule="evenodd" d="M60.1899 19.7505L54.8932 14.4538L56.8277 12.5193L62.1244 17.816L60.1899 19.7505Z" fill="#243970"/>
<path fill-rule="evenodd" clip-rule="evenodd" d="M57.0118 22.399L51.7151 17.1022L53.6496 15.1677L58.9463 20.4645L57.0118 22.399Z" fill="#243970"/>
<path fill-rule="evenodd" clip-rule="evenodd" d="M33.6187 35.8157L39.3391 41.4273L37.4233 43.3803L31.7028 37.7687L33.6187 35.8157ZM32.9919 45.2013L30.0258 42.3955L31.9058 40.408L34.872 43.2138L32.9919 45.2013Z" fill="#243970"/>
</svg>
