<svg width="35" height="35" viewBox="0 0 35 35" fill="none" xmlns="http://www.w3.org/2000/svg">
<path d="M17.5 3.646C13.8256 3.646 10.3018 5.10563 7.70363 7.70379C5.10547 10.3019 3.64584 13.8258 3.64584 17.5002C3.64584 21.1745 5.10547 24.6984 7.70363 27.2965C10.3018 29.8947 13.8256 31.3543 17.5 31.3543C21.1744 31.3543 24.6982 29.8947 27.2964 27.2965C29.8945 24.6984 31.3542 21.1745 31.3542 17.5002C31.3542 13.8258 29.8945 10.3019 27.2964 7.70379C24.6982 5.10563 21.1744 3.646 17.5 3.646Z" fill="#616161"/>
<path d="M19.3754 21.172H22.9607L23.5236 17.5298H19.3747V15.5392C19.3747 14.0262 19.8691 12.6845 21.2844 12.6845H23.5586V9.50607C23.1591 9.45211 22.314 9.33398 20.7171 9.33398C17.3826 9.33398 15.4277 11.0949 15.4277 15.1068V17.5298H11.9999V21.172H15.4277V31.1827C16.1066 31.2848 16.7942 31.3541 17.5 31.3541C18.138 31.3541 18.7607 31.2958 19.3754 31.2126V21.172Z" fill="white"/>
</svg>
