<svg width="136" height="134" viewBox="0 0 136 134" fill="none" xmlns="http://www.w3.org/2000/svg">
<path fill-rule="evenodd" clip-rule="evenodd" d="M28.2901 101.425C13.1618 101.425 0.897827 113.689 0.897827 128.818V134H55.6823V128.818C55.6823 113.689 43.4184 101.425 28.2901 101.425Z" fill="#85EDFB"/>
<circle cx="28.6918" cy="86.7051" r="16.3138" fill="#FBCE9F"/>
<path d="M13.0493 26.1492L2.71045 16.5488L16.0032 14.3334L22.6496 0.302124L29.296 14.3334L42.5887 16.5488L32.9884 26.1492L35.2039 39.4419L22.6496 33.534L10.8338 40.1804L13.0493 26.1492Z" fill="#FCD426"/>
<path d="M60.1782 26.1492L49.8394 16.5488L63.1321 14.3334L69.7785 0.302124L76.4249 14.3334L89.7176 16.5488L80.1173 26.1492L82.3328 39.4419L69.7785 33.534L57.9627 40.1804L60.1782 26.1492Z" fill="#FCD426"/>
<path d="M106.099 26.1492L95.7598 16.5488L109.053 14.3334L115.699 0.302124L122.345 14.3334L135.638 16.5488L126.038 26.1492L128.253 39.4419L115.699 33.534L103.883 40.1804L106.099 26.1492Z" fill="#FDBD04"/>
<path fill-rule="evenodd" clip-rule="evenodd" d="M69.7487 33.3149L82.3343 39.2376L80.1133 25.9116L89.7376 16.2873L76.4116 14.0663L69.7487 0L69.7487 2.41597e-05L69.7487 33.3149Z" fill="#FDBD04"/>
<path fill-rule="evenodd" clip-rule="evenodd" d="M68.2679 94.022C53.1396 94.022 40.8757 106.286 40.8757 121.414V134H95.6602V121.414C95.6602 106.286 83.3963 94.022 68.2679 94.022Z" fill="#FC6176"/>
<path fill-rule="evenodd" clip-rule="evenodd" d="M108.246 101.425C93.1175 101.425 80.8535 113.689 80.8535 128.818V134H135.638V128.818C135.638 113.689 123.374 101.425 108.246 101.425Z" fill="#39E1FD"/>
<circle cx="109.053" cy="86.7051" r="16.3138" fill="#F8A76D"/>
<circle cx="68.8722" cy="79.1524" r="16.0117" fill="#FBCE9F"/>
<path fill-rule="evenodd" clip-rule="evenodd" d="M95.6602 134V121.414C95.6602 106.534 83.7944 94.4242 69.0083 94.0318V134H95.6602Z" fill="#E8384D"/>
<path fill-rule="evenodd" clip-rule="evenodd" d="M69.0083 95.5027C78.0036 95.5027 85.2956 88.2106 85.2956 79.2154C85.2956 70.2202 78.0036 62.9281 69.0083 62.9281C69.0083 62.9281 69.0083 62.9281 69.0083 62.9281L69.0083 95.5027Z" fill="#F8A76D"/>
</svg>
