<svg width="136" height="84" viewBox="0 0 136 84" fill="none" xmlns="http://www.w3.org/2000/svg">
<path d="M104.657 55.88L93.5163 46.2185L77.762 52.9206L60.3539 75.4641C60.2378 76.2185 60.702 78.0057 63.4873 79.1198C66.2726 80.234 68.4776 79.0038 69.232 78.2494L73.584 73.2881C76.9264 75.5164 79.6188 74.2165 80.5473 73.2881L84.9863 68.675C88.8857 70.4854 91.4853 69.0812 92.2977 68.1527L96.3016 63.5396C100.392 65.6285 101.698 64.9322 104.657 62.0599C107.025 59.762 105.644 56.9825 104.657 55.88Z" fill="#E59F6A"/>
<path d="M102.656 50.9187H111.969L110.402 40.2127L96.4757 41.3442L93.2552 49.439L98.2165 54.6614L102.656 50.9187Z" fill="#D37D42"/>
<path d="M41.9883 8.09479L38.5067 14.1876L27.9748 13.0561L23.6227 52.6595L34.0676 53.5299L37.9844 57.969L59.0482 71.4603H68.9709C71.9651 72.853 74.8026 70.6479 75.8471 69.3713L78.8935 65.6286L77.3268 64.2359C77.0366 63.8297 76.6653 62.7737 77.5008 61.7988C78.3364 60.8239 79.7639 61.3926 80.3732 61.7988L84.4641 65.1934C85.9438 66.1508 87.3944 64.8452 87.7716 64.323L90.644 60.9284C90.0057 60.4062 88.642 59.2746 88.2939 58.9265C87.8587 58.4913 87.3364 57.2727 88.2939 56.1412C89.0598 55.2359 90.4119 55.764 90.9921 56.1412L96.6498 60.9284C103.474 57.9342 101.466 53.3559 99.6091 51.441L79.1546 33.2495L65.4022 10.706C61.3983 9.51645 52.4332 6.87622 48.6034 5.83173C44.7736 4.78724 42.5976 6.90523 41.9883 8.09479Z" fill="#F9C295"/>
<rect x="46.1813" y="53.7907" width="9.79563" height="14.4376" rx="4.89782" transform="rotate(37.0704 46.1813 53.7907)" fill="#F29F5C"/>
<rect x="55.0473" y="58.322" width="9.58278" height="16.1771" rx="4.79139" transform="rotate(37.0704 55.0473 58.322)" fill="#F29F5C"/>
<rect x="63.0789" y="63.5694" width="10.04" height="16.7943" rx="5.01998" transform="rotate(37.0704 63.0789 63.5694)" fill="#F29F5C"/>
<rect x="37.0321" y="49.5359" width="9.8614" height="12.5708" rx="4.9307" transform="rotate(37.0704 37.0321 49.5359)" fill="#F29F5C"/>
<path d="M6.88244 6.52325C7.30866 2.92056 10.5747 0.345512 14.1774 0.771724C23.7846 1.90829 30.6514 10.6178 29.5148 20.225L27.7521 35.1252C26.6155 44.7324 17.906 51.5992 8.2988 50.4626C4.69611 50.0364 2.12107 46.7703 2.54728 43.1676L6.88244 6.52325Z" fill="#ED5575"/>
<path d="M46.4274 37.6886C44.4777 36.7138 44.6866 34.7873 45.0347 33.9459C48.9226 27.2728 57.0637 13.2128 58.526 10.3579C59.9883 7.50298 64.0676 6.38306 65.9245 6.17997C70.3055 5.71575 79.8161 4.71769 82.8103 4.43916C85.8045 4.16063 87.7716 4.9614 88.3809 5.3966L100.48 12.3598L106.05 11.6635L110.228 42.4759L100.48 43.8685L95.5182 47.8724L79.0676 33.0755C73.497 33.8415 68.6227 29.5649 66.8819 27.3308C65.8954 28.6654 63.4699 31.8569 61.6595 33.9459C59.3964 36.5571 55.4796 38.6461 53.9129 38.9072C52.3461 39.1683 48.8645 38.9072 46.4274 37.6886Z" fill="#F29F5C"/>
<path d="M6.01204 13.6606C6.43825 10.0579 9.70432 7.48284 13.307 7.90905C22.9142 9.04562 29.781 17.7551 28.6444 27.3623L26.8816 42.2625C25.7451 51.8697 17.0356 58.7365 7.4284 57.5999C3.82571 57.1737 1.25066 53.9077 1.67687 50.305L6.01204 13.6606Z" fill="#CC3A60"/>
<circle cx="13.526" cy="46.2185" r="3.91682" fill="white"/>
<path d="M134.26 50.2518C134.721 53.8502 132.178 57.1409 128.579 57.6017C118.983 58.8305 110.208 52.0477 108.98 42.4519L107.074 27.5693C105.845 17.9735 112.628 9.19837 122.224 7.96957C125.822 7.50877 129.113 10.0523 129.573 13.6508L134.26 50.2518Z" fill="#3580D3"/>
<path d="M133.373 43.1166C133.834 46.715 131.29 50.0057 127.692 50.4665C118.096 51.6953 109.321 44.9125 108.092 35.3167L106.186 20.4341C104.957 10.8383 111.74 2.06318 121.336 0.83438C124.934 0.37358 128.225 2.91713 128.686 6.51556L133.373 43.1166Z" fill="#5C9CEE"/>
<circle cx="122.464" cy="46.1816" r="3.91682" transform="rotate(165.956 122.464 46.1816)" fill="white"/>
</svg>
