<svg width="81" height="81" viewBox="0 0 81 81" fill="none" xmlns="http://www.w3.org/2000/svg">
<rect width="81" height="81" rx="40.5" fill="#FFECCC"/>
<path d="M16.866 36.3023C20.4419 39.8783 18.7095 53.9547 17.3963 60.5459C16.3357 61.8339 12.3961 61.6066 10.6536 61.2278C8.91108 60.849 8.00195 59.8641 7.85043 57.667C7.6989 55.4699 9.13837 47.7423 9.44141 46.7574C9.74445 45.7725 10.8809 43.4996 9.13837 42.5147C7.39587 41.5298 6.10793 36.7569 7.77467 34.7113C9.44142 32.6658 12.3961 31.8324 16.866 36.3023Z" fill="#918F85"/>
<path d="M63.3114 36.3023C59.7355 39.8783 61.4679 53.9547 62.7811 60.5459C63.8417 61.8339 67.7813 61.6066 69.5238 61.2278C71.2663 60.849 72.1755 59.8641 72.327 57.667C72.4785 55.4699 71.0391 47.7423 70.736 46.7574C70.433 45.7725 69.2965 43.4996 71.0391 42.5147C72.7816 41.5298 74.0695 36.7569 72.4028 34.7113C70.736 32.6658 67.7813 31.8324 63.3114 36.3023Z" fill="#918F85"/>
<path d="M18.6843 23.8774C19.2904 21.9985 32.7253 21.8824 39.3671 22.0592V40.3934C35.7911 37.7266 25.2502 38.4236 20.4268 39.1054L19.6692 36.5295L18.6843 34.0294V23.8774Z" fill="#FF4155"/>
<path d="M61.9439 23.8774C61.3378 21.9985 47.9028 21.8824 41.2611 22.0592V40.3934C44.837 37.7266 55.3779 38.4236 60.2014 39.1054L60.959 36.5295L61.9439 34.0294V23.8774Z" fill="#FF4155"/>
<path d="M39.4428 42.8936V47.6665H20.7298C21.0935 46.3331 20.8813 42.8178 20.7298 41.2268C32.5485 38.9237 38.1296 41.3784 39.4428 42.8936Z" fill="#F11954"/>
<path d="M41.1854 42.8936V47.6665H59.8984C59.5347 46.3331 59.7469 42.8178 59.8984 41.2268C48.0796 38.9237 42.4986 41.3784 41.1854 42.8936Z" fill="#F11954"/>
<path d="M20.8056 49.7119L19.5934 58.9548H61.4893L60.1256 49.7119H20.8056Z" fill="#918F85"/>
</svg>
