<svg width="20" height="24" viewBox="0 0 20 24" fill="none" xmlns="http://www.w3.org/2000/svg">
<path d="M19.0005 10.0003C19.0005 17.0005 10.0003 23.0007 10.0003 23.0007C10.0003 23.0007 1 17.0005 1 10.0003C1 7.61325 1.94824 5.32399 3.63612 3.63612C5.32399 1.94824 7.61325 1 10.0003 1C12.3873 1 14.6765 1.94824 16.3644 3.63612C18.0523 5.32399 19.0005 7.61325 19.0005 10.0003Z" fill="white" stroke="black" stroke-width="2" stroke-linecap="round" stroke-linejoin="round"/>
<path d="M10.0006 13.0004C11.6575 13.0004 13.0007 11.6572 13.0007 10.0003C13.0007 8.34337 11.6575 7.00018 10.0006 7.00018C8.34367 7.00018 7.00049 8.34337 7.00049 10.0003C7.00049 11.6572 8.34367 13.0004 10.0006 13.0004Z" fill="white" stroke="black" stroke-width="2" stroke-linecap="round" stroke-linejoin="round"/>
</svg>
