<svg width="81" height="81" viewBox="0 0 81 81" fill="none" xmlns="http://www.w3.org/2000/svg">
<rect width="81" height="81" rx="40.5" fill="#FFECCC"/>
<path fill-rule="evenodd" clip-rule="evenodd" d="M46.3101 29.4592C40.9484 30.6893 28.7945 32.0671 23.0718 27.7369L24.6844 26.3017C24.9187 23.1716 27.2232 16.5916 34.5669 15.3122V14H37.0892V15.3122C38.9223 15.6266 43.1923 17.2231 45.6071 21.094L46.3101 29.4592ZM27.124 36.5941C27.7177 38.6855 29.4505 42.3301 32.3765 44.067C30.529 44.2779 28.625 44.6863 26.7518 45.3694V57.1791H38.5364C38.3021 54.172 39.2641 47.6001 44.9869 45.3694C43.7703 44.9156 41.7589 44.3883 39.3062 44.1C42.2661 42.3766 44.0172 38.6988 44.6147 36.5941C45.1661 36.4301 46.2687 35.8806 46.2687 34.9949C46.2687 34.769 46.2859 34.5124 46.3038 34.2452C46.3738 33.203 46.4544 32.0007 45.5658 31.8375C45.1566 31.7623 44.6697 31.8469 43.8792 31.9842C42.5126 32.2216 40.2385 32.6166 35.89 32.6166L35.8683 32.634L35.8487 32.6166C31.5002 32.6166 29.2261 32.2216 27.8595 31.9842C27.069 31.8469 26.5821 31.7623 26.173 31.8375C25.2843 32.0007 25.365 33.203 25.4349 34.2452C25.4528 34.5124 25.47 34.769 25.47 34.9949C25.47 35.8806 26.5727 36.4301 27.124 36.5941ZM23.3199 65.0932V46.1895L19.4744 48.3218L16.1251 50.8232C15.1989 59.746 19.5984 64.5191 23.3199 65.0932ZM49.986 44.7354L47.8813 23.5543C47.5092 20.7249 48.0774 18.3689 50.0315 16.7474C52.0577 15.0661 55.531 15.2876 57.2676 16.9524C58.7149 18.3398 59.2524 20.4379 59.0043 23.5543C58.8167 25.9104 57.8758 38.12 57.3542 44.9003C61.8129 46.4967 65 50.7307 65 55.7028C65 60.1856 62.4095 64.0683 58.6322 65.9591V53.6525H48.2948V66C44.4727 64.1247 41.8444 60.2182 41.8444 55.7028C41.8444 50.5482 45.2696 46.187 49.986 44.7354ZM53.3808 17.8551L57.0057 21.2342L53.3808 24.8289L49.756 21.2342L53.3808 17.8551ZM52.8707 21.2819L53.3808 21.7878L53.8909 21.2819L53.3808 20.8064L52.8707 21.2819Z" fill="#C37575"/>
</svg>
