<svg width="81" height="81" viewBox="0 0 81 81" fill="none" xmlns="http://www.w3.org/2000/svg">
<rect width="81" height="81" rx="12" fill="#FFECCC"/>
<path fill-rule="evenodd" clip-rule="evenodd" d="M18.3665 16.8571C18.3069 16.9678 18.2309 17.1816 18.2309 17.5771V62.5408C18.2309 63.6196 18.4243 63.7488 18.4568 63.7705C18.458 63.7714 18.459 63.7721 18.4598 63.7726C18.6569 63.9205 19.2854 64.1563 21.1926 64.1563H35.1933C36.0855 64.1563 36.8087 64.8796 36.8087 65.7718C36.8087 66.664 36.0855 67.3872 35.1933 67.3872H21.1926C19.3304 67.3872 17.6703 67.2192 16.5212 66.3574C15.1954 65.363 15 63.8438 15 62.5408V17.5771C15 15.8582 15.7202 14.5561 17.0052 13.7968C18.132 13.131 19.5062 13 20.6541 13H48.7861L62.3869 26.6008V36.155C62.3869 37.0472 61.6636 37.7704 60.7714 37.7704C59.8792 37.7704 59.156 37.0472 59.156 36.155V27.9391L47.4478 16.2309H20.6541C19.6481 16.2309 19.003 16.3692 18.6489 16.5784C18.5029 16.6647 18.4219 16.7539 18.3665 16.8571Z" fill="#243970"/>
<path fill-rule="evenodd" clip-rule="evenodd" d="M45.963 14.8848H49.1939V26.193H60.5022V29.4239H45.963V14.8848Z" fill="#243970"/>
<path fill-rule="evenodd" clip-rule="evenodd" d="M20.3849 21.885C20.3849 20.9928 21.1082 20.2695 22.0003 20.2695H41.1167C42.0088 20.2695 42.7321 20.9928 42.7321 21.885C42.7321 22.7772 42.0088 23.5005 41.1167 23.5005H22.0003C21.1082 23.5005 20.3849 22.7772 20.3849 21.885Z" fill="#243970"/>
<path fill-rule="evenodd" clip-rule="evenodd" d="M20.3849 27.5393C20.3849 26.6471 21.1082 25.9238 22.0003 25.9238H35.7318C36.624 25.9238 37.3472 26.6471 37.3472 27.5393C37.3472 28.4315 36.624 29.1548 35.7318 29.1548H22.0003C21.1082 29.1548 20.3849 28.4315 20.3849 27.5393Z" fill="#243970"/>
<path fill-rule="evenodd" clip-rule="evenodd" d="M20.3849 32.9241C20.3849 32.0319 21.1082 31.3086 22.0003 31.3086H29.5392C30.4314 31.3086 31.1546 32.0319 31.1546 32.9241C31.1546 33.8163 30.4314 34.5395 29.5392 34.5395H22.0003C21.1082 34.5395 20.3849 33.8163 20.3849 32.9241Z" fill="#243970"/>
<path fill-rule="evenodd" clip-rule="evenodd" d="M20.3849 38.3091C20.3849 37.4169 21.1082 36.6936 22.0003 36.6936H23.6158C24.508 36.6936 25.2313 37.4169 25.2313 38.3091C25.2313 39.2013 24.508 39.9245 23.6158 39.9245H22.0003C21.1082 39.9245 20.3849 39.2013 20.3849 38.3091Z" fill="#243970"/>
<path fill-rule="evenodd" clip-rule="evenodd" d="M65.7028 39.0712C66.3226 39.713 66.3049 40.7357 65.6632 41.3555L50.0466 56.4403L42.956 49.5912C42.3143 48.9713 42.2966 47.9486 42.9164 47.3069C43.5363 46.6652 44.559 46.6475 45.2007 47.2674L50.0466 51.9482L63.4185 39.0317C64.0602 38.4118 65.0829 38.4295 65.7028 39.0712Z" fill="#243970"/>
<path fill-rule="evenodd" clip-rule="evenodd" d="M48.6554 63.3485C55.0495 63.3485 60.2329 58.1651 60.2329 51.771C60.2329 45.377 55.0495 40.1936 48.6554 40.1936C42.2614 40.1936 37.078 45.377 37.078 51.771C37.078 58.1651 42.2614 63.3485 48.6554 63.3485ZM48.6554 66.5795C56.8339 66.5795 63.4639 59.9495 63.4639 51.771C63.4639 43.5926 56.8339 36.9626 48.6554 36.9626C40.477 36.9626 33.847 43.5926 33.847 51.771C33.847 59.9495 40.477 66.5795 48.6554 66.5795Z" fill="#243970"/>
</svg>
