<svg width="81" height="81" viewBox="0 0 81 81" fill="none" xmlns="http://www.w3.org/2000/svg">
<rect width="81" height="81" rx="40.5" fill="#FFECCC"/>
<path d="M14.8891 24.5506L36.5543 14.7482L27.3763 26.2988H15.5759C13.5779 26.2988 13.8277 25.0501 14.8891 24.5506Z" fill="#5C4EF7"/>
<path d="M64.8376 24.5506L43.1724 14.7482L52.3504 26.2988H64.1508C66.1488 26.2988 65.899 25.0501 64.8376 24.5506Z" fill="#5C4EF7"/>
<path d="M50.3525 26.2988H29.5614L39.8633 13L50.3525 26.2988Z" fill="#DE5B7A"/>
<path d="M39.2943 28.083C39.2943 27.6642 39.6458 27.7193 40.0792 27.7193C40.5127 27.7193 40.8642 27.6642 40.8642 28.083V64.2418C40.8642 64.6605 40.5127 65 40.0792 65C39.6458 65 39.2943 64.6605 39.2943 64.2418V28.083Z" fill="#DE5B7A"/>
<path d="M45.6074 63.5728C46.0557 63.5728 46.4191 63.9361 46.4191 64.3844V64.3844C46.4191 64.8327 46.0557 65.1961 45.6074 65.1961L34.6187 65.1961C34.1705 65.1961 33.8071 64.8327 33.8071 64.3844V64.3844C33.8071 63.9361 34.1705 63.5728 34.6187 63.5728L45.6074 63.5728Z" fill="#DE5B7A"/>
<path d="M25.5655 44.2802C25.5655 43.8319 25.9289 43.4685 26.3772 43.4685H53.8489C54.2972 43.4685 54.6606 43.8319 54.6606 44.2802V44.2802C54.6606 44.7284 54.2972 45.0918 53.8489 45.0918H26.3772C25.9289 45.0918 25.5655 44.7284 25.5655 44.2802V44.2802Z" fill="#DE5B7A"/>
<path d="M28.5625 44.9045C28.5625 44.1114 29.2054 43.4685 29.9985 43.4685H50.1028C50.8959 43.4685 51.5388 44.1114 51.5388 44.9045V44.9045C51.5388 45.6976 50.8959 46.3405 50.1028 46.3405H29.9985C29.2054 46.3405 28.5625 45.6976 28.5625 44.9045V44.9045Z" fill="#DE5B7A"/>
<path d="M64.5898 53.583C64.5898 54.0825 64.7772 54.582 63.5909 55.5185H50.4169C50.4169 51.5227 52.7479 50.6902 53.9133 50.7734H64.5898V53.583Z" fill="#BF6423"/>
<path fill-rule="evenodd" clip-rule="evenodd" d="M65.8305 33.9046C66.4229 33.9702 66.85 34.5036 66.7844 35.0961L64.7865 53.14C64.7209 53.7324 64.1875 54.1595 63.595 54.0939C63.0026 54.0283 62.5755 53.4949 62.6411 52.9024L64.6391 34.8585C64.7047 34.2661 65.2381 33.839 65.8305 33.9046Z" fill="#BF6423"/>
<path fill-rule="evenodd" clip-rule="evenodd" d="M63.0748 53.5217C63.6604 53.4102 64.2254 53.7944 64.337 54.3799L66.3349 64.8691C66.4464 65.4547 66.0622 66.0197 65.4767 66.1313C64.8911 66.2428 64.3261 65.8585 64.2145 65.273L62.2166 54.7838C62.1051 54.1983 62.4893 53.6332 63.0748 53.5217Z" fill="#BF6423"/>
<path fill-rule="evenodd" clip-rule="evenodd" d="M54.528 53.5176C55.1157 53.6168 55.5118 54.1736 55.4127 54.7614L53.6645 65.1257C53.5653 65.7134 53.0085 66.1095 52.4208 66.0104C51.833 65.9113 51.4369 65.3544 51.536 64.7667L53.2842 54.4024C53.3834 53.8146 53.9402 53.4185 54.528 53.5176Z" fill="#BF6423"/>
<path d="M15.2013 53.583C15.2013 54.0825 15.014 54.582 16.2002 55.5185H29.3742C29.3742 51.5227 27.0432 50.6902 25.8778 50.7734H15.2013V53.583Z" fill="#BF6423"/>
<path fill-rule="evenodd" clip-rule="evenodd" d="M13.9606 33.9046C13.3681 33.9702 12.9411 34.5036 13.0067 35.0961L15.0046 53.14C15.0702 53.7324 15.6036 54.1595 16.1961 54.0939C16.7885 54.0283 17.2156 53.4949 17.15 52.9024L15.152 34.8585C15.0864 34.2661 14.553 33.839 13.9606 33.9046Z" fill="#BF6423"/>
<path fill-rule="evenodd" clip-rule="evenodd" d="M16.7163 53.5217C16.1308 53.4102 15.5657 53.7944 15.4542 54.3799L13.4562 64.8691C13.3447 65.4547 13.7289 66.0197 14.3145 66.1313C14.9 66.2428 15.4651 65.8585 15.5766 65.273L17.5745 54.7838C17.6861 54.1983 17.3018 53.6332 16.7163 53.5217Z" fill="#BF6423"/>
<path fill-rule="evenodd" clip-rule="evenodd" d="M25.2631 53.5176C24.6754 53.6168 24.2793 54.1736 24.3784 54.7614L26.1266 65.1257C26.2258 65.7134 26.7826 66.1095 27.3703 66.0104C27.9581 65.9113 28.3542 65.3544 28.255 64.7667L26.5068 54.4024C26.4077 53.8146 25.8509 53.4185 25.2631 53.5176Z" fill="#BF6423"/>
</svg>
