<svg width="81" height="81" viewBox="0 0 81 81" fill="none" xmlns="http://www.w3.org/2000/svg">
<rect width="81" height="81" rx="12" fill="#FFECCC"/>
<path fill-rule="evenodd" clip-rule="evenodd" d="M40.5937 11C41.2977 11 41.8684 11.5707 41.8684 12.2747L41.8684 19.9232C41.8684 20.6272 41.2977 21.1979 40.5937 21.1979C39.8897 21.1979 39.319 20.6272 39.319 19.9232L39.319 12.2747C39.319 11.5707 39.8897 11 40.5937 11Z" fill="#243970"/>
<path fill-rule="evenodd" clip-rule="evenodd" d="M71.1874 41.5936C71.1874 42.2976 70.6167 42.8683 69.9126 42.8683L62.2642 42.8683C61.5602 42.8683 60.9895 42.2976 60.9895 41.5936C60.9895 40.8896 61.5602 40.3188 62.2642 40.3188L69.9126 40.3188C70.6167 40.3188 71.1874 40.8896 71.1874 41.5936Z" fill="#243970"/>
<path fill-rule="evenodd" clip-rule="evenodd" d="M20.1979 41.5936C20.1979 42.2976 19.6272 42.8683 18.9231 42.8683L11.2747 42.8683C10.5707 42.8683 9.99996 42.2976 9.99996 41.5936C9.99996 40.8896 10.5707 40.3188 11.2747 40.3188L18.9231 40.3188C19.6272 40.3188 20.1979 40.8896 20.1979 41.5936Z" fill="#243970"/>
<path fill-rule="evenodd" clip-rule="evenodd" d="M55.8906 15.0986C56.5003 15.4506 56.7092 16.2302 56.3572 16.8399L52.5329 23.4636C52.1809 24.0733 51.4013 24.2822 50.7916 23.9302C50.1819 23.5782 49.973 22.7986 50.325 22.1889L54.1493 15.5651C54.5013 14.9554 55.2809 14.7465 55.8906 15.0986Z" fill="#243970"/>
<path fill-rule="evenodd" clip-rule="evenodd" d="M30.3958 59.257C31.0055 59.609 31.2144 60.3886 30.8624 60.9983L27.0382 67.6221C26.6862 68.2318 25.9066 68.4407 25.2969 68.0887C24.6872 67.7366 24.4783 66.957 24.8303 66.3473L28.6545 59.7236C29.0065 59.1139 29.7861 58.905 30.3958 59.257Z" fill="#243970"/>
<path fill-rule="evenodd" clip-rule="evenodd" d="M22.9304 31.3959C22.5784 32.0056 21.7988 32.2145 21.1891 31.8625L14.5653 28.0383C13.9556 27.6863 13.7467 26.9067 14.0987 26.297C14.4507 25.6873 15.2304 25.4784 15.8401 25.8304L22.4638 29.6546C23.0735 30.0066 23.2824 30.7863 22.9304 31.3959Z" fill="#243970"/>
<path fill-rule="evenodd" clip-rule="evenodd" d="M67.0887 26.2968C67.4407 26.9065 67.2318 27.6861 66.6221 28.0382L59.9983 31.8624C59.3886 32.2144 58.609 32.0055 58.257 31.3958C57.905 30.7861 58.1139 30.0065 58.7236 29.6545L65.3473 25.8302C65.957 25.4782 66.7367 25.6871 67.0887 26.2968Z" fill="#243970"/>
<path fill-rule="evenodd" clip-rule="evenodd" d="M22.9305 51.7917C23.2825 52.4014 23.0736 53.181 22.4639 53.533L15.8401 57.3572C15.2304 57.7093 14.4508 57.5004 14.0988 56.8907C13.7468 56.281 13.9557 55.5013 14.5654 55.1493L21.1891 51.3251C21.7988 50.9731 22.5785 51.182 22.9305 51.7917Z" fill="#243970"/>
<path fill-rule="evenodd" clip-rule="evenodd" d="M30.3958 23.9303C29.7861 24.2823 29.0065 24.0734 28.6545 23.4638L24.8303 16.84C24.4782 16.2303 24.6871 15.4507 25.2968 15.0987C25.9065 14.7467 26.6862 14.9556 27.0382 15.5653L30.8624 22.189C31.2144 22.7987 31.0055 23.5783 30.3958 23.9303Z" fill="#243970"/>
<path fill-rule="evenodd" clip-rule="evenodd" d="M45.6926 58.5902H34.6449V56.0408H45.6926V58.5902Z" fill="#243970"/>
<path fill-rule="evenodd" clip-rule="evenodd" d="M45.6926 62.8395H34.6449V60.29H45.6926V62.8395Z" fill="#243970"/>
<path fill-rule="evenodd" clip-rule="evenodd" d="M34.4346 64.5391C34.794 65.5429 35.4393 66.4217 36.2786 67.0885C37.329 67.9232 38.6834 68.4258 40.1616 68.4258C41.6399 68.4258 42.9942 67.9232 44.0446 67.0885C44.8839 66.4217 45.5292 65.5429 45.8886 64.5391H34.4346Z" fill="#243970"/>
<path fill-rule="evenodd" clip-rule="evenodd" d="M52.9542 50.555C56.0522 47.457 56.0522 42.4341 52.9542 39.3361C49.8562 36.2381 44.8333 36.2381 41.7353 39.3361C38.6373 42.4341 38.6373 47.457 41.7353 50.555C44.8333 53.653 49.8562 53.653 52.9542 50.555ZM54.7569 52.3577C58.8505 48.2641 58.8505 41.627 54.7569 37.5334C50.6633 33.4397 44.0262 33.4397 39.9326 37.5334C35.8389 41.627 35.8389 48.2641 39.9326 52.3577C44.0262 56.4514 50.6633 56.4514 54.7569 52.3577Z" fill="#243970"/>
<path fill-rule="evenodd" clip-rule="evenodd" d="M42.3885 42.4494C41.1285 43.8411 41.1285 46.1451 42.3885 47.5369L40.4985 49.248C38.3592 46.8849 38.3592 43.1013 40.4985 40.7383L42.3885 42.4494Z" fill="#243970"/>
<path d="M30.0035 48.4418C27.9576 45.7769 27.3937 40.9165 28.9489 36.6872C30.4812 32.5205 34.0374 29.0589 40.1688 29.0589C44.0244 29.0589 46.8617 30.4277 48.8178 32.4798C49.4863 32.5584 50.1498 32.6906 50.8011 32.8765C48.6437 29.9062 45.1606 27.7842 40.1688 27.7842C33.4324 27.7842 29.4436 31.6487 27.7525 36.2472C26.0845 40.7831 26.6191 46.1269 28.9924 49.218C30.5615 51.2617 31.5494 52.8833 32.173 54.1907L32.3462 54.5537H39.2668C38.9931 54.3231 38.7269 54.0789 38.4692 53.8211C38.2923 53.6443 38.1219 53.4635 37.9578 53.279H33.1454C32.4723 51.9445 31.4758 50.3593 30.0035 48.4418Z" fill="#243970"/>
<path fill-rule="evenodd" clip-rule="evenodd" d="M48.6159 32.8838L48.5102 32.7728C46.6384 30.8091 43.9142 29.4837 40.1688 29.4837C34.2388 29.4837 30.8269 32.8112 29.3477 36.8337C27.8301 40.9607 28.4036 45.66 30.3406 48.1829C31.7409 50.0068 32.721 51.541 33.4051 52.8539H38.1485L38.2753 52.9964C38.4339 53.1747 38.5987 53.3495 38.7696 53.5205C39.0188 53.7697 39.2761 54.0058 39.5406 54.2286L40.4305 54.9785H32.0781L31.7895 54.3735C31.1819 53.0996 30.2114 51.5034 28.6554 49.4767C26.1729 46.2433 25.6482 40.7383 27.3537 36.1004C29.0976 31.3582 33.2306 27.3591 40.1688 27.3591C45.2974 27.3591 48.908 29.5469 51.1449 32.6266L51.8685 33.6229L50.6845 33.2849C50.0552 33.1053 49.4142 32.9776 48.7682 32.9017L48.6159 32.8838ZM33.1454 53.2788C32.4723 51.9444 31.4758 50.3592 30.0035 48.4416C27.9576 45.7767 27.3937 40.9164 28.9489 36.687C30.4812 32.5204 34.0374 29.0588 40.1688 29.0588C44.0244 29.0588 46.8617 30.4275 48.8178 32.4797C49.2611 32.5318 49.7021 32.6074 50.1389 32.7067C50.3608 32.7572 50.5816 32.8137 50.8011 32.8763C50.6654 32.6895 50.5245 32.506 50.3782 32.3263C48.1996 29.6475 44.8466 27.784 40.1688 27.784C33.4324 27.784 29.4436 31.6486 27.7525 36.2471C26.0845 40.7829 26.6191 46.1267 28.9924 49.2179C30.5615 51.2616 31.5494 52.8832 32.173 54.1906L32.3462 54.5536H39.2668C39.1044 54.4167 38.9446 54.2751 38.7877 54.1287C38.6802 54.0283 38.574 53.9258 38.4692 53.821C38.2923 53.6441 38.1219 53.4633 37.9578 53.2788H33.1454Z" fill="#243970"/>
<path fill-rule="evenodd" clip-rule="evenodd" d="M56.8494 52.0804L54.7821 54.1477L57.194 56.5595L56.7172 57.0364C56.2193 57.5342 56.2193 58.3413 56.7172 58.8391L66.9736 69.0956C67.4714 69.5934 68.2786 69.5934 68.7764 69.0956L71.7973 66.0746C72.2951 65.5768 72.2951 64.7697 71.7973 64.2719L61.5408 54.0154C61.043 53.5176 60.2359 53.5176 59.7381 54.0154L59.2613 54.4922L56.8494 52.0804Z" fill="#243970"/>
</svg>
