<svg width="81" height="81" viewBox="0 0 81 81" fill="none" xmlns="http://www.w3.org/2000/svg">
<rect width="81" height="81" rx="12" fill="#FFECCC"/>
<path fill-rule="evenodd" clip-rule="evenodd" d="M45.5428 35.1337C46.0495 34.6245 46.8731 34.6225 47.3823 35.1292L52.8137 40.5341L56.6965 36.6702C57.2057 36.1634 58.0293 36.1655 58.536 36.6747C59.0428 37.1839 59.0408 38.0075 58.5315 38.5142L52.8137 44.2042L45.5473 36.9732C45.0381 36.4665 45.0361 35.6429 45.5428 35.1337Z" fill="#243970"/>
<path fill-rule="evenodd" clip-rule="evenodd" d="M52.7827 23.6015C43.0332 23.6015 35.1297 31.505 35.1297 41.2544C35.1297 45.5767 36.6815 49.5332 39.2598 52.6023C39.7219 53.1523 39.6506 53.9728 39.1005 54.4349C38.5505 54.897 37.73 54.8257 37.2679 54.2756C34.3106 50.7554 32.5282 46.2114 32.5282 41.2544C32.5282 30.0682 41.5964 21 52.7827 21C63.9689 21 73.0371 30.0682 73.0371 41.2544C73.0371 52.4406 63.9689 61.5089 52.7827 61.5089H23.6088C22.8905 61.5089 22.3081 60.9265 22.3081 60.2081C22.3081 59.4897 22.8905 58.9074 23.6088 58.9074H52.7827C62.5321 58.9074 70.4356 51.0039 70.4356 41.2544C70.4356 31.505 62.5321 23.6015 52.7827 23.6015Z" fill="#243970"/>
<path fill-rule="evenodd" clip-rule="evenodd" d="M21.0074 37.352C21.0074 36.6336 21.5898 36.0513 22.3082 36.0513H30.4843C31.2027 36.0513 31.785 36.6336 31.785 37.352C31.785 38.0704 31.2027 38.6528 30.4843 38.6528H22.3082C21.5898 38.6528 21.0074 38.0704 21.0074 37.352Z" fill="#243970"/>
<path fill-rule="evenodd" clip-rule="evenodd" d="M8 43.1125C8 42.3941 8.58236 41.8118 9.30074 41.8118L27.8828 41.8118C28.6012 41.8118 29.1835 42.3941 29.1835 43.1125C29.1835 43.8309 28.6012 44.4133 27.8828 44.4133L9.30074 44.4133C8.58236 44.4133 8 43.8309 8 43.1125Z" fill="#243970"/>
<path fill-rule="evenodd" clip-rule="evenodd" d="M19.1492 48.6872C19.1492 47.9688 19.7315 47.3865 20.4499 47.3865L31.5991 47.3865C32.3175 47.3865 32.8999 47.9688 32.8999 48.6872C32.8999 49.4056 32.3175 49.988 31.5991 49.988L20.4499 49.988C19.7315 49.988 19.1492 49.4056 19.1492 48.6872Z" fill="#243970"/>
<path fill-rule="evenodd" clip-rule="evenodd" d="M13.5747 54.2619C13.5747 53.5435 14.1571 52.9612 14.8754 52.9612L29.7411 52.9612C30.4595 52.9612 31.0418 53.5435 31.0418 54.2619C31.0418 54.9803 30.4595 55.5627 29.7411 55.5627L14.8755 55.5627C14.1571 55.5627 13.5747 54.9803 13.5747 54.2619Z" fill="#243970"/>
<path fill-rule="evenodd" clip-rule="evenodd" d="M52.7828 26.5745C53.5012 26.5745 54.0835 27.1568 54.0835 27.8752L54.0835 28.9901C54.0835 29.7085 53.5012 30.2909 52.7828 30.2909C52.0644 30.2909 51.4821 29.7085 51.4821 28.9901L51.4821 27.8752C51.4821 27.1568 52.0644 26.5745 52.7828 26.5745Z" fill="#243970"/>
<path fill-rule="evenodd" clip-rule="evenodd" d="M52.7828 52.9612C53.5012 52.9612 54.0835 53.5435 54.0835 54.2619L54.0835 55.3768C54.0835 56.0952 53.5012 56.6776 52.7828 56.6776C52.0644 56.6776 51.4821 56.0952 51.4821 55.3768L51.4821 54.2619C51.4821 53.5435 52.0644 52.9612 52.7828 52.9612Z" fill="#243970"/>
<path fill-rule="evenodd" clip-rule="evenodd" d="M67.8342 41.6259C67.8342 42.3443 67.2519 42.9267 66.5335 42.9267L65.4186 42.9267C64.7002 42.9267 64.1178 42.3443 64.1178 41.6259C64.1178 40.9076 64.7002 40.3252 65.4186 40.3252L66.5335 40.3252C67.2519 40.3252 67.8342 40.9076 67.8342 41.6259Z" fill="#243970"/>
<path fill-rule="evenodd" clip-rule="evenodd" d="M41.4476 41.6259C41.4476 42.3443 40.8653 42.9267 40.1469 42.9267L39.032 42.9267C38.3136 42.9267 37.7312 42.3443 37.7312 41.6259C37.7312 40.9076 38.3136 40.3252 39.032 40.3252L40.1469 40.3252C40.8653 40.3252 41.4476 40.9076 41.4476 41.6259Z" fill="#243970"/>
<path fill-rule="evenodd" clip-rule="evenodd" d="M60.3085 28.5913C60.9306 28.9505 61.1438 29.746 60.7846 30.3681L60.2271 31.3337C59.8679 31.9558 59.0724 32.169 58.4503 31.8098C57.8281 31.4506 57.615 30.6551 57.9742 30.0329L58.5316 29.0674C58.8908 28.4453 59.6863 28.2321 60.3085 28.5913Z" fill="#243970"/>
<path fill-rule="evenodd" clip-rule="evenodd" d="M47.1152 51.4426C47.7374 51.8018 47.9505 52.5973 47.5914 53.2195L47.0339 54.185C46.6747 54.8071 45.8792 55.0203 45.257 54.6611C44.6349 54.3019 44.4217 53.5064 44.7809 52.8843L45.3384 51.9187C45.6976 51.2966 46.4931 51.0834 47.1152 51.4426Z" fill="#243970"/>
<path fill-rule="evenodd" clip-rule="evenodd" d="M65.8176 49.1519C65.4585 49.774 64.6629 49.9872 64.0408 49.628L63.0752 49.0705C62.4531 48.7113 62.24 47.9158 62.5991 47.2937C62.9583 46.6715 63.7539 46.4584 64.376 46.8176L65.3415 47.375C65.9637 47.7342 66.1768 48.5297 65.8176 49.1519Z" fill="#243970"/>
<path fill-rule="evenodd" clip-rule="evenodd" d="M42.9662 35.9588C42.607 36.5809 41.8115 36.794 41.1894 36.4349L40.2238 35.8774C39.6017 35.5182 39.3885 34.7227 39.7477 34.1005C40.1069 33.4784 40.9024 33.2653 41.5245 33.6244L42.4901 34.1819C43.1122 34.5411 43.3254 35.3366 42.9662 35.9588Z" fill="#243970"/>
<path fill-rule="evenodd" clip-rule="evenodd" d="M65.8176 34.1004C66.1768 34.7225 65.9636 35.518 65.3415 35.8772L64.376 36.4347C63.7538 36.7939 62.9583 36.5807 62.5991 35.9586C62.2399 35.3364 62.4531 34.5409 63.0752 34.1817L64.0408 33.6242C64.6629 33.2651 65.4584 33.4782 65.8176 34.1004Z" fill="#243970"/>
<path fill-rule="evenodd" clip-rule="evenodd" d="M42.9663 47.2937C43.3255 47.9158 43.1123 48.7114 42.4902 49.0706L41.5246 49.628C40.9025 49.9872 40.107 49.7741 39.7478 49.1519C39.3886 48.5298 39.6018 47.7343 40.2239 47.3751L41.1894 46.8176C41.8116 46.4584 42.6071 46.6716 42.9663 47.2937Z" fill="#243970"/>
<path fill-rule="evenodd" clip-rule="evenodd" d="M60.3085 54.6611C59.6863 55.0203 58.8908 54.8071 58.5316 54.185L57.9742 53.2195C57.615 52.5973 57.8281 51.8018 58.4503 51.4426C59.0724 51.0834 59.8679 51.2966 60.2271 51.9187L60.7846 52.8843C61.1438 53.5064 60.9306 54.3019 60.3085 54.6611Z" fill="#243970"/>
<path fill-rule="evenodd" clip-rule="evenodd" d="M47.1152 31.8096C46.4931 32.1687 45.6976 31.9556 45.3384 31.3334L44.7809 30.3679C44.4217 29.7458 44.6349 28.9502 45.257 28.591C45.8792 28.2319 46.6747 28.445 47.0339 29.0672L47.5913 30.0327C47.9505 30.6548 47.7374 31.4504 47.1152 31.8096Z" fill="#243970"/>
</svg>
