<svg width="35" height="35" viewBox="0 0 35 35" fill="none" xmlns="http://www.w3.org/2000/svg">
<path d="M3.54959 31.5753L5.51397 24.4039C4.30209 22.3054 3.6648 19.9239 3.66553 17.4849C3.66917 9.85412 9.87876 3.646 17.5102 3.646C21.2137 3.64745 24.6889 5.08902 27.3029 7.70454C29.9163 10.3208 31.3556 13.7975 31.3542 17.4958C31.3513 25.1265 25.1402 31.3354 17.5102 31.3354H17.5044C15.1878 31.3346 12.9106 30.7535 10.8887 29.6503L3.54959 31.5753Z" fill="white"/>
<path d="M3.54958 31.9397C3.45333 31.9397 3.36 31.9018 3.29073 31.8318C3.19958 31.7392 3.16385 31.6043 3.19812 31.4796L5.1224 24.4533C3.92948 22.3344 3.30021 19.9281 3.30167 17.4854C3.30458 9.65271 9.67823 3.28125 17.5102 3.28125C21.3092 3.28271 24.8784 4.76219 27.561 7.44698C30.2436 10.1325 31.7202 13.701 31.7187 17.4956C31.7158 25.3276 25.3415 31.6998 17.5102 31.6998C15.1849 31.6991 12.8844 31.1252 10.8427 30.0395L3.64219 31.9273C3.61156 31.936 3.58094 31.9397 3.54958 31.9397Z" fill="white"/>
<path d="M17.5102 3.64567C21.2136 3.64713 24.6888 5.08869 27.3029 7.70421C29.9162 10.3205 31.3556 13.7971 31.3542 17.4955C31.3512 25.1262 25.1402 31.335 17.5102 31.335H17.5044C15.1878 31.3343 12.9106 30.7532 10.8886 29.6499L3.54958 31.5749L5.51396 24.4036C4.30208 22.305 3.66479 19.9236 3.66552 17.4845C3.66916 9.8538 9.87875 3.64567 17.5102 3.64567ZM17.5102 2.9165C9.47771 2.9165 2.94 9.4513 2.93635 17.4845C2.93562 19.9396 3.55541 22.359 4.73083 24.5006L2.84594 31.3832C2.77739 31.6347 2.84739 31.9031 3.03114 32.0883C3.16968 32.2283 3.35708 32.3048 3.54958 32.3048C3.61156 32.3048 3.67354 32.2968 3.73479 32.2808L10.7982 30.4287C12.8603 31.4991 15.1718 32.0642 17.5044 32.0649C25.5427 32.0649 32.0804 25.5294 32.0841 17.4962C32.0855 13.6032 30.571 9.94275 27.8199 7.18942C25.0673 4.43536 21.4061 2.91796 17.5102 2.9165Z" fill="#616161"/>
<path d="M25.6492 9.35652C23.4762 7.18215 20.588 5.98413 17.5139 5.9834C11.1672 5.9834 6.00542 11.143 6.0025 17.4853C6.00177 19.6589 6.6099 21.775 7.76198 23.6074L8.03615 24.0427L6.87313 28.2871L11.2284 27.1453L11.6492 27.3946C13.4152 28.4432 15.4408 28.9974 17.5058 28.9981H17.5102C23.8525 28.9981 29.0143 23.8378 29.0165 17.4948C29.0172 14.4213 27.8221 11.5309 25.6492 9.35652Z" fill="#616161"/>
<path fill-rule="evenodd" clip-rule="evenodd" d="M14.0496 11.6997C13.7907 11.1237 13.518 11.112 13.2708 11.1018C13.0689 11.093 12.8384 11.0938 12.608 11.0938C12.3776 11.0938 12.0028 11.1805 11.6856 11.5269C11.3684 11.8732 10.4745 12.7096 10.4745 14.4115C10.4745 16.1133 11.7141 17.7583 11.8869 17.9888C12.0597 18.2192 14.28 21.8235 17.796 23.2103C20.7178 24.3624 21.3128 24.1335 21.9472 24.0758C22.5816 24.0182 23.994 23.2395 24.282 22.4316C24.57 21.6237 24.57 20.9317 24.484 20.7873C24.3972 20.6429 24.1668 20.5569 23.8212 20.3833C23.4755 20.2098 21.7744 19.3735 21.4572 19.2582C21.14 19.143 20.9096 19.0854 20.6784 19.4318C20.448 19.7774 19.7852 20.5569 19.5832 20.7873C19.3813 21.0185 19.1793 21.0476 18.8337 20.8741C18.488 20.7005 17.3739 20.336 16.0519 19.1576C15.0238 18.2411 14.3296 17.1087 14.1276 16.7623C13.9256 16.4167 14.1057 16.2293 14.2793 16.0565C14.4346 15.9012 14.6249 15.6525 14.7984 15.4505C14.9713 15.2486 15.0289 15.1042 15.1441 14.8738C15.2593 14.6426 15.2017 14.4406 15.1149 14.2678C15.0296 14.0943 14.3573 12.3837 14.0496 11.6997Z" fill="white"/>
</svg>
