<svg width="42" height="43" viewBox="0 0 42 43" fill="none" xmlns="http://www.w3.org/2000/svg">
<path d="M0 42.6072L2.95428 31.7027C1.12916 28.5038 0.170487 24.8751 0.174896 21.1822C0.179707 9.57905 9.51997 0.139404 20.9978 0.139404C26.5676 0.142265 31.7955 2.33352 35.7273 6.31119C39.659 10.2889 41.8223 15.576 41.8203 21.1991C41.8152 32.8014 32.4736 42.2427 20.9975 42.2427H20.9884C17.5038 42.2413 14.0797 41.3575 11.0383 39.681L0 42.6072Z" fill="white"/>
<path d="M21.004 3.69426C11.4574 3.69426 3.69375 11.54 3.69036 21.1837C3.68565 24.4767 4.60294 27.7038 6.33616 30.492L6.74793 31.1537L4.99925 37.6076L11.5497 35.8713L12.1822 36.2501C14.8387 37.8439 17.8847 38.6868 20.9909 38.6885H20.9975C30.5367 38.6885 38.3003 30.8419 38.304 21.1977C38.3112 18.899 37.8673 16.6218 36.998 14.4977C36.1287 12.3737 34.8513 10.445 33.2396 8.8235C31.637 7.19308 29.7303 5.90024 27.63 5.0198C25.5298 4.13936 23.2776 3.68882 21.004 3.69426Z" fill="url(#paint0_linear_201_1374)"/>
<path fill-rule="evenodd" clip-rule="evenodd" d="M15.7933 12.3849C15.4033 11.5091 14.993 11.4914 14.6225 11.4762L13.6252 11.4639C13.2782 11.4639 12.7145 11.5955 12.2379 12.122C11.7613 12.6484 10.4168 13.9207 10.4168 16.5085C10.4168 19.0963 12.2812 21.5968 12.541 21.9481C12.8008 22.2995 16.1402 27.7792 21.4287 29.8875C25.8235 31.6395 26.7178 31.2911 27.6721 31.2035C28.6264 31.116 30.7503 29.9312 31.1836 28.703C31.6169 27.4748 31.6172 26.4225 31.4873 26.2025C31.3574 25.9825 31.0104 25.8517 30.4897 25.5885C29.9689 25.3253 27.4114 24.053 26.9346 23.8773C26.4577 23.7017 26.111 23.6144 25.7638 24.1408C25.4165 24.6672 24.4207 25.8514 24.117 26.2025C23.8133 26.5535 23.5102 26.5976 22.9895 26.3346C22.4688 26.0717 20.7934 25.5161 18.8056 23.7243C17.259 22.3301 16.215 20.6083 15.911 20.0822C15.6071 19.556 15.8788 19.2711 16.1397 19.009C16.3732 18.7733 16.6598 18.3947 16.9205 18.0878C17.1811 17.7808 17.2669 17.5613 17.4401 17.2109C17.6133 16.8604 17.527 16.5525 17.3968 16.2896C17.2666 16.0267 16.2557 13.4252 15.7933 12.3849Z" fill="white"/>
<defs>
<linearGradient id="paint0_linear_201_1374" x1="20.6448" y1="5.79425" x2="20.8242" y2="35.699" gradientUnits="userSpaceOnUse">
<stop stop-color="#57D163"/>
<stop offset="1" stop-color="#23B33A"/>
</linearGradient>
</defs>
</svg>
