<svg width="35" height="35" viewBox="0 0 35 35" fill="none" xmlns="http://www.w3.org/2000/svg">
<path d="M31.5 24.7188C31.2083 26.25 29.9688 27.4167 28.4375 27.6354C26.0313 28 22.0208 28.4375 17.5 28.4375C13.0521 28.4375 9.04167 28 6.5625 27.6354C5.03126 27.4167 3.79167 26.25 3.50001 24.7188C3.20834 23.0417 2.91667 20.5625 2.91667 17.5C2.91667 14.4375 3.20834 11.9583 3.50001 10.2812C3.79167 8.75 5.03126 7.58333 6.5625 7.36458C8.96875 7 12.9792 6.5625 17.5 6.5625C22.0208 6.5625 25.9583 7 28.4375 7.36458C29.9688 7.58333 31.2083 8.75 31.5 10.2812C31.7917 11.9583 32.1563 14.4375 32.1563 17.5C32.0833 20.5625 31.7917 23.0417 31.5 24.7188Z" fill="#616161"/>
<path d="M14.5833 22.6043V12.396L23.3333 17.5002L14.5833 22.6043Z" fill="white"/>
</svg>
